<svg width="979" height="316" viewBox="0 0 979 316" fill="none" xmlns="http://www.w3.org/2000/svg">
<mask id="path-1-outside-1_2003_6" maskUnits="userSpaceOnUse" x="-0.315552" y="15" width="962" height="69" fill="black">
<rect fill="white" x="-0.315552" y="15" width="962" height="69"/>
<path d="M13.1163 78H5.7299L27.0935 19.8182H34.3663L55.7299 78H48.3435L30.9572 29.0227H30.5026L13.1163 78ZM15.8435 55.2727H45.6163V61.5227H15.8435V55.2727ZM109.792 78V19.8182H116.838V71.75H143.883V78H109.792ZM206.838 19.8182V78H199.792V19.8182H206.838ZM326.532 78.7955C322.707 78.7955 319.411 78.0947 316.646 76.6932C313.881 75.2917 311.75 73.3693 310.254 70.9261C308.758 68.483 308.01 65.6894 308.01 62.5455C308.01 60.1212 308.521 57.9716 309.544 56.0966C310.585 54.2027 312.015 52.4508 313.834 50.8409C315.671 49.2121 317.782 47.5833 320.169 45.9545L328.578 39.7045C330.226 38.625 331.542 37.4697 332.527 36.2386C333.531 35.0076 334.032 33.3977 334.032 31.4091C334.032 29.9318 333.379 28.5019 332.072 27.1193C330.784 25.7367 329.089 25.0455 326.987 25.0455C325.51 25.0455 324.203 25.4242 323.067 26.1818C321.949 26.9205 321.068 27.8674 320.425 29.0227C319.8 30.1591 319.487 31.3333 319.487 32.5455C319.487 33.9091 319.856 35.2917 320.595 36.6932C321.353 38.0758 322.309 39.4962 323.464 40.9545C324.639 42.3939 325.851 43.8712 327.101 45.3864L353.805 78H345.737L323.692 51.4091C321.646 48.947 319.79 46.7121 318.123 44.7045C316.457 42.697 315.131 40.7178 314.146 38.767C313.161 36.8163 312.669 34.7045 312.669 32.4318C312.669 29.8182 313.246 27.5265 314.402 25.5568C315.576 23.5682 317.214 22.0246 319.317 20.9261C321.438 19.8087 323.919 19.25 326.76 19.25C329.676 19.25 332.186 19.8182 334.288 20.9545C336.39 22.072 338.01 23.5587 339.146 25.4148C340.282 27.2519 340.851 29.25 340.851 31.4091C340.851 34.1932 340.159 36.608 338.777 38.6534C337.394 40.6989 335.51 42.6023 333.123 44.3636L321.532 53C318.919 54.9318 317.148 56.8068 316.22 58.625C315.292 60.4432 314.828 61.75 314.828 62.5455C314.828 64.3636 315.301 66.0587 316.248 67.6307C317.195 69.2027 318.531 70.4716 320.254 71.4375C321.978 72.4034 323.995 72.8864 326.305 72.8864C328.502 72.8864 330.642 72.4223 332.726 71.4943C334.809 70.5473 336.693 69.1837 338.379 67.4034C340.084 65.6231 341.428 63.483 342.413 60.983C343.417 58.483 343.919 55.6705 343.919 52.5455H350.396C350.396 56.4091 349.951 59.5625 349.061 62.0057C348.171 64.4489 347.167 66.3617 346.05 67.7443C344.932 69.1269 344.032 70.1591 343.351 70.8409C343.123 71.125 342.915 71.4091 342.726 71.6932C342.536 71.9773 342.328 72.2614 342.101 72.5455C340.226 74.6477 337.858 76.2197 334.998 77.2614C332.139 78.2841 329.317 78.7955 326.532 78.7955ZM452.136 78V19.8182H459.182V48.6818H459.863L486 19.8182H495.204L470.773 46.0682L495.204 78H486.682L466.454 50.9545L459.182 59.1364V78H452.136ZM549.324 78V19.8182H556.369V45.7273H587.392V19.8182H594.437V78H587.392V51.9773H556.369V78H549.324ZM655.929 78H648.542L669.906 19.8182H677.179L698.542 78H691.156L673.77 29.0227H673.315L655.929 78ZM658.656 55.2727H688.429V61.5227H658.656V55.2727ZM798.741 19.8182V78H791.923L760.219 32.3182H759.65V78H752.605V19.8182H759.423L791.241 65.6136H791.809V19.8182H798.741ZM862.839 19.8182V24.9318C862.839 26.4848 862.555 28.142 861.987 29.9034C861.438 31.6458 860.623 33.3409 859.544 34.9886C858.483 36.6174 857.195 38.0379 855.68 39.25L852.044 36.2955C853.237 34.5909 854.269 32.8201 855.14 30.983C856.031 29.1269 856.476 27.1477 856.476 25.0455V19.8182H862.839ZM949.423 34.3636C949.082 31.4848 947.7 29.25 945.275 27.6591C942.851 26.0682 939.878 25.2727 936.355 25.2727C933.779 25.2727 931.525 25.6894 929.594 26.5227C927.681 27.3561 926.184 28.5019 925.105 29.9602C924.044 31.4186 923.514 33.0758 923.514 34.9318C923.514 36.4848 923.883 37.8201 924.622 38.9375C925.38 40.036 926.345 40.9545 927.52 41.6932C928.694 42.4129 929.925 43.0095 931.213 43.483C932.501 43.9375 933.684 44.3068 934.764 44.5909L940.673 46.1818C942.188 46.5795 943.874 47.1288 945.73 47.8295C947.605 48.5303 949.395 49.4867 951.099 50.6989C952.823 51.892 954.243 53.4261 955.361 55.3011C956.478 57.1761 957.037 59.4773 957.037 62.2045C957.037 65.3485 956.213 68.1894 954.565 70.7273C952.936 73.2652 950.55 75.2822 947.406 76.7784C944.281 78.2746 940.484 79.0227 936.014 79.0227C931.847 79.0227 928.239 78.3504 925.19 77.0057C922.16 75.661 919.773 73.786 918.031 71.3807C916.308 68.9754 915.332 66.1818 915.105 63H922.378C922.567 65.197 923.306 67.0152 924.594 68.4545C925.9 69.875 927.548 70.9356 929.537 71.6364C931.544 72.3182 933.703 72.6591 936.014 72.6591C938.703 72.6591 941.118 72.2235 943.258 71.3523C945.398 70.4621 947.094 69.2311 948.344 67.6591C949.594 66.0682 950.219 64.2121 950.219 62.0909C950.219 60.1591 949.679 58.5871 948.599 57.375C947.52 56.1629 946.099 55.178 944.338 54.4205C942.576 53.6629 940.673 53 938.628 52.4318L931.469 50.3864C926.923 49.0795 923.325 47.214 920.673 44.7898C918.022 42.3655 916.696 39.1932 916.696 35.2727C916.696 32.0151 917.576 29.1742 919.338 26.75C921.118 24.3068 923.505 22.4129 926.497 21.0682C929.508 19.7045 932.87 19.0227 936.582 19.0227C940.332 19.0227 943.666 19.6951 946.582 21.0398C949.499 22.3655 951.809 24.1837 953.514 26.4943C955.237 28.8049 956.147 31.428 956.241 34.3636H949.423Z"/>
</mask>
<path d="M13.1163 78H5.7299L27.0935 19.8182H34.3663L55.7299 78H48.3435L30.9572 29.0227H30.5026L13.1163 78ZM15.8435 55.2727H45.6163V61.5227H15.8435V55.2727ZM109.792 78V19.8182H116.838V71.75H143.883V78H109.792ZM206.838 19.8182V78H199.792V19.8182H206.838ZM326.532 78.7955C322.707 78.7955 319.411 78.0947 316.646 76.6932C313.881 75.2917 311.75 73.3693 310.254 70.9261C308.758 68.483 308.01 65.6894 308.01 62.5455C308.01 60.1212 308.521 57.9716 309.544 56.0966C310.585 54.2027 312.015 52.4508 313.834 50.8409C315.671 49.2121 317.782 47.5833 320.169 45.9545L328.578 39.7045C330.226 38.625 331.542 37.4697 332.527 36.2386C333.531 35.0076 334.032 33.3977 334.032 31.4091C334.032 29.9318 333.379 28.5019 332.072 27.1193C330.784 25.7367 329.089 25.0455 326.987 25.0455C325.51 25.0455 324.203 25.4242 323.067 26.1818C321.949 26.9205 321.068 27.8674 320.425 29.0227C319.8 30.1591 319.487 31.3333 319.487 32.5455C319.487 33.9091 319.856 35.2917 320.595 36.6932C321.353 38.0758 322.309 39.4962 323.464 40.9545C324.639 42.3939 325.851 43.8712 327.101 45.3864L353.805 78H345.737L323.692 51.4091C321.646 48.947 319.79 46.7121 318.123 44.7045C316.457 42.697 315.131 40.7178 314.146 38.767C313.161 36.8163 312.669 34.7045 312.669 32.4318C312.669 29.8182 313.246 27.5265 314.402 25.5568C315.576 23.5682 317.214 22.0246 319.317 20.9261C321.438 19.8087 323.919 19.25 326.76 19.25C329.676 19.25 332.186 19.8182 334.288 20.9545C336.39 22.072 338.01 23.5587 339.146 25.4148C340.282 27.2519 340.851 29.25 340.851 31.4091C340.851 34.1932 340.159 36.608 338.777 38.6534C337.394 40.6989 335.51 42.6023 333.123 44.3636L321.532 53C318.919 54.9318 317.148 56.8068 316.22 58.625C315.292 60.4432 314.828 61.75 314.828 62.5455C314.828 64.3636 315.301 66.0587 316.248 67.6307C317.195 69.2027 318.531 70.4716 320.254 71.4375C321.978 72.4034 323.995 72.8864 326.305 72.8864C328.502 72.8864 330.642 72.4223 332.726 71.4943C334.809 70.5473 336.693 69.1837 338.379 67.4034C340.084 65.6231 341.428 63.483 342.413 60.983C343.417 58.483 343.919 55.6705 343.919 52.5455H350.396C350.396 56.4091 349.951 59.5625 349.061 62.0057C348.171 64.4489 347.167 66.3617 346.05 67.7443C344.932 69.1269 344.032 70.1591 343.351 70.8409C343.123 71.125 342.915 71.4091 342.726 71.6932C342.536 71.9773 342.328 72.2614 342.101 72.5455C340.226 74.6477 337.858 76.2197 334.998 77.2614C332.139 78.2841 329.317 78.7955 326.532 78.7955ZM452.136 78V19.8182H459.182V48.6818H459.863L486 19.8182H495.204L470.773 46.0682L495.204 78H486.682L466.454 50.9545L459.182 59.1364V78H452.136ZM549.324 78V19.8182H556.369V45.7273H587.392V19.8182H594.437V78H587.392V51.9773H556.369V78H549.324ZM655.929 78H648.542L669.906 19.8182H677.179L698.542 78H691.156L673.77 29.0227H673.315L655.929 78ZM658.656 55.2727H688.429V61.5227H658.656V55.2727ZM798.741 19.8182V78H791.923L760.219 32.3182H759.65V78H752.605V19.8182H759.423L791.241 65.6136H791.809V19.8182H798.741ZM862.839 19.8182V24.9318C862.839 26.4848 862.555 28.142 861.987 29.9034C861.438 31.6458 860.623 33.3409 859.544 34.9886C858.483 36.6174 857.195 38.0379 855.68 39.25L852.044 36.2955C853.237 34.5909 854.269 32.8201 855.14 30.983C856.031 29.1269 856.476 27.1477 856.476 25.0455V19.8182H862.839ZM949.423 34.3636C949.082 31.4848 947.7 29.25 945.275 27.6591C942.851 26.0682 939.878 25.2727 936.355 25.2727C933.779 25.2727 931.525 25.6894 929.594 26.5227C927.681 27.3561 926.184 28.5019 925.105 29.9602C924.044 31.4186 923.514 33.0758 923.514 34.9318C923.514 36.4848 923.883 37.8201 924.622 38.9375C925.38 40.036 926.345 40.9545 927.52 41.6932C928.694 42.4129 929.925 43.0095 931.213 43.483C932.501 43.9375 933.684 44.3068 934.764 44.5909L940.673 46.1818C942.188 46.5795 943.874 47.1288 945.73 47.8295C947.605 48.5303 949.395 49.4867 951.099 50.6989C952.823 51.892 954.243 53.4261 955.361 55.3011C956.478 57.1761 957.037 59.4773 957.037 62.2045C957.037 65.3485 956.213 68.1894 954.565 70.7273C952.936 73.2652 950.55 75.2822 947.406 76.7784C944.281 78.2746 940.484 79.0227 936.014 79.0227C931.847 79.0227 928.239 78.3504 925.19 77.0057C922.16 75.661 919.773 73.786 918.031 71.3807C916.308 68.9754 915.332 66.1818 915.105 63H922.378C922.567 65.197 923.306 67.0152 924.594 68.4545C925.9 69.875 927.548 70.9356 929.537 71.6364C931.544 72.3182 933.703 72.6591 936.014 72.6591C938.703 72.6591 941.118 72.2235 943.258 71.3523C945.398 70.4621 947.094 69.2311 948.344 67.6591C949.594 66.0682 950.219 64.2121 950.219 62.0909C950.219 60.1591 949.679 58.5871 948.599 57.375C947.52 56.1629 946.099 55.178 944.338 54.4205C942.576 53.6629 940.673 53 938.628 52.4318L931.469 50.3864C926.923 49.0795 923.325 47.214 920.673 44.7898C918.022 42.3655 916.696 39.1932 916.696 35.2727C916.696 32.0151 917.576 29.1742 919.338 26.75C921.118 24.3068 923.505 22.4129 926.497 21.0682C929.508 19.7045 932.87 19.0227 936.582 19.0227C940.332 19.0227 943.666 19.6951 946.582 21.0398C949.499 22.3655 951.809 24.1837 953.514 26.4943C955.237 28.8049 956.147 31.428 956.241 34.3636H949.423Z" fill="#5E1414"/>
<path d="M13.1163 78V82H15.9409L16.8858 79.3381L13.1163 78ZM5.7299 78L1.97503 76.6213L2.31266e-05 82H5.7299V78ZM27.0935 19.8182V15.8182H24.3012L23.3387 18.4394L27.0935 19.8182ZM34.3663 19.8182L38.1211 18.4394L37.1586 15.8182H34.3663V19.8182ZM55.7299 78V82H61.4598L59.4848 76.6213L55.7299 78ZM48.3435 78L44.574 79.3381L45.5189 82H48.3435V78ZM30.9572 29.0227L34.7267 27.6846L33.7818 25.0227H30.9572V29.0227ZM30.5026 29.0227V25.0227H27.678L26.7331 27.6846L30.5026 29.0227ZM15.8435 55.2727V51.2727H11.8435V55.2727H15.8435ZM45.6163 55.2727H49.6163V51.2727H45.6163V55.2727ZM45.6163 61.5227V65.5227H49.6163V61.5227H45.6163ZM15.8435 61.5227H11.8435V65.5227H15.8435V61.5227ZM13.1163 78V74H5.7299V78V82H13.1163V78ZM5.7299 78L9.48478 79.3787L30.8484 21.1969L27.0935 19.8182L23.3387 18.4394L1.97503 76.6213L5.7299 78ZM27.0935 19.8182V23.8182H34.3663V19.8182V15.8182H27.0935V19.8182ZM34.3663 19.8182L30.6114 21.1969L51.975 79.3787L55.7299 78L59.4848 76.6213L38.1211 18.4394L34.3663 19.8182ZM55.7299 78V74H48.3435V78V82H55.7299V78ZM48.3435 78L52.1131 76.6619L34.7267 27.6846L30.9572 29.0227L27.1876 30.3609L44.574 79.3381L48.3435 78ZM30.9572 29.0227V25.0227H30.5026V29.0227V33.0227H30.9572V29.0227ZM30.5026 29.0227L26.7331 27.6846L9.34673 76.6619L13.1163 78L16.8858 79.3381L34.2722 30.3609L30.5026 29.0227ZM15.8435 55.2727V59.2727H45.6163V55.2727V51.2727H15.8435V55.2727ZM45.6163 55.2727H41.6163V61.5227H45.6163H49.6163V55.2727H45.6163ZM45.6163 61.5227V57.5227H15.8435V61.5227V65.5227H45.6163V61.5227ZM15.8435 61.5227H19.8435V55.2727H15.8435H11.8435V61.5227H15.8435ZM109.792 78H105.792V82H109.792V78ZM109.792 19.8182V15.8182H105.792V19.8182H109.792ZM116.838 19.8182H120.838V15.8182H116.838V19.8182ZM116.838 71.75H112.838V75.75H116.838V71.75ZM143.883 71.75H147.883V67.75H143.883V71.75ZM143.883 78V82H147.883V78H143.883ZM109.792 78H113.792V19.8182H109.792H105.792V78H109.792ZM109.792 19.8182V23.8182H116.838V19.8182V15.8182H109.792V19.8182ZM116.838 19.8182H112.838V71.75H116.838H120.838V19.8182H116.838ZM116.838 71.75V75.75H143.883V71.75V67.75H116.838V71.75ZM143.883 71.75H139.883V78H143.883H147.883V71.75H143.883ZM143.883 78V74H109.792V78V82H143.883V78ZM206.838 19.8182H210.838V15.8182H206.838V19.8182ZM206.838 78V82H210.838V78H206.838ZM199.792 78H195.792V82H199.792V78ZM199.792 19.8182V15.8182H195.792V19.8182H199.792ZM206.838 19.8182H202.838V78H206.838H210.838V19.8182H206.838ZM206.838 78V74H199.792V78V82H206.838V78ZM199.792 78H203.792V19.8182H199.792H195.792V78H199.792ZM199.792 19.8182V23.8182H206.838V19.8182V15.8182H199.792V19.8182ZM316.646 76.6932L314.838 80.2611V80.2611L316.646 76.6932ZM310.254 70.9261L313.665 68.8371V68.8371L310.254 70.9261ZM309.544 56.0966L306.039 54.1689L306.032 54.1812L309.544 56.0966ZM313.834 50.8409L316.485 53.8357L316.487 53.8339L313.834 50.8409ZM320.169 45.9545L322.424 49.2583L322.49 49.213L322.555 49.1649L320.169 45.9545ZM328.578 39.7045L326.386 36.3587L326.287 36.4236L326.192 36.4942L328.578 39.7045ZM332.527 36.2386L329.427 33.7109L329.415 33.7253L329.403 33.7399L332.527 36.2386ZM332.072 27.1193L329.145 29.8457L329.155 29.8564L329.165 29.867L332.072 27.1193ZM323.067 26.1818L325.272 29.5187L325.279 29.5144L325.285 29.51L323.067 26.1818ZM320.424 29.0227L316.931 27.0753L316.925 27.0852L316.92 27.0951L320.424 29.0227ZM320.595 36.6932L317.056 38.5581L317.071 38.5869L317.087 38.6153L320.595 36.6932ZM323.464 40.9545L320.329 43.4384L320.347 43.4609L320.365 43.4831L323.464 40.9545ZM327.101 45.3864L330.195 42.8522L330.191 42.8465L330.186 42.8408L327.101 45.3864ZM353.805 78V82H362.25L356.9 75.4659L353.805 78ZM345.737 78L342.658 80.553L343.857 82H345.737V78ZM323.692 51.4091L326.771 48.8561L326.768 48.853L323.692 51.4091ZM318.123 44.7045L315.046 47.2596V47.2596L318.123 44.7045ZM314.146 38.767L310.575 40.5698V40.5698L314.146 38.767ZM314.402 25.5568L310.957 23.523L310.951 23.5331L314.402 25.5568ZM319.317 20.9261L321.169 24.4714L321.181 24.4651L319.317 20.9261ZM334.288 20.9545L332.386 24.4734L332.398 24.48L332.411 24.4866L334.288 20.9545ZM339.146 25.4148L335.735 27.5034L335.739 27.5112L335.744 27.519L339.146 25.4148ZM338.777 38.6534L335.463 36.4134V36.4134L338.777 38.6534ZM333.123 44.3636L330.748 41.1453L330.741 41.1507L330.733 41.1561L333.123 44.3636ZM321.532 53L323.91 56.2167L323.916 56.2121L323.922 56.2075L321.532 53ZM316.22 58.625L312.657 56.8065V56.8065L316.22 58.625ZM316.248 67.6307L319.675 65.5666V65.5666L316.248 67.6307ZM332.726 71.4943L334.353 75.1482L334.367 75.142L334.381 75.1358L332.726 71.4943ZM338.379 67.4034L335.49 64.6371L335.482 64.6452L335.474 64.6533L338.379 67.4034ZM342.413 60.983L338.701 59.4925L338.696 59.5047L338.691 59.5169L342.413 60.983ZM343.919 52.5455V48.5455H339.919V52.5455H343.919ZM350.396 52.5455H354.396V48.5455H350.396V52.5455ZM349.061 62.0057L345.303 60.6364V60.6364L349.061 62.0057ZM346.049 67.7443L349.16 70.2587V70.2587L346.049 67.7443ZM343.351 70.8409L340.522 68.0125L340.366 68.1691L340.227 68.3421L343.351 70.8409ZM342.726 71.6932L346.054 73.912V73.912L342.726 71.6932ZM342.101 72.5455L345.086 75.2079L345.157 75.1279L345.224 75.0442L342.101 72.5455ZM334.998 77.2614L336.345 81.0278L336.356 81.0238L336.367 81.0198L334.998 77.2614ZM326.532 78.7955V74.7955C323.191 74.7955 320.543 74.1839 318.454 73.1253L316.646 76.6932L314.838 80.2611C318.279 82.0055 322.223 82.7955 326.532 82.7955V78.7955ZM316.646 76.6932L318.454 73.1253C316.294 72.0302 314.743 70.5967 313.665 68.8371L310.254 70.9261L306.843 73.0151C308.758 76.142 311.468 78.5531 314.838 80.2611L316.646 76.6932ZM310.254 70.9261L313.665 68.8371C312.591 67.0831 312.01 65.0263 312.01 62.5455H308.01H304.01C304.01 66.3525 304.925 69.8828 306.843 73.0151L310.254 70.9261ZM308.01 62.5455H312.01C312.01 60.6989 312.394 59.224 313.055 58.012L309.544 56.0966L306.032 54.1812C304.648 56.7192 304.01 59.5435 304.01 62.5455H308.01ZM309.544 56.0966L313.049 58.0243C313.844 56.5788 314.969 55.1786 316.485 53.8357L313.834 50.8409L311.182 47.8461C309.062 49.7229 307.327 51.8265 306.039 54.1689L309.544 56.0966ZM313.834 50.8409L316.487 53.8339C318.178 52.3345 320.153 50.8082 322.424 49.2583L320.169 45.9545L317.914 42.6507C315.412 44.3585 313.163 46.0897 311.18 47.8479L313.834 50.8409ZM320.169 45.9545L322.555 49.1649L330.964 42.9149L328.578 39.7045L326.192 36.4942L317.783 42.7442L320.169 45.9545ZM328.578 39.7045L330.77 43.0504C332.687 41.7946 334.345 40.3686 335.65 38.7374L332.527 36.2386L329.403 33.7399C328.739 34.5708 327.765 35.4554 326.386 36.3587L328.578 39.7045ZM332.527 36.2386L335.627 38.7664C337.347 36.6566 338.032 34.0809 338.032 31.4091H334.032H330.032C330.032 32.7146 329.714 33.3585 329.427 33.7109L332.527 36.2386ZM334.032 31.4091H338.032C338.032 28.6411 336.779 26.2753 334.979 24.3717L332.072 27.1193L329.165 29.867C329.98 30.7285 330.032 31.2226 330.032 31.4091H334.032ZM332.072 27.1193L334.999 24.3929C332.865 22.102 330.061 21.0455 326.987 21.0455V25.0455V29.0455C328.118 29.0455 328.704 29.3715 329.145 29.8457L332.072 27.1193ZM326.987 25.0455V21.0455C324.788 21.0455 322.695 21.622 320.848 22.8536L323.067 26.1818L325.285 29.51C325.711 29.2265 326.232 29.0455 326.987 29.0455V25.0455ZM323.067 26.1818L320.861 22.8449C319.216 23.9322 317.891 25.353 316.931 27.0753L320.424 29.0227L323.918 30.9702C324.246 30.3819 324.682 29.9087 325.272 29.5187L323.067 26.1818ZM320.424 29.0227L316.92 27.0951C315.993 28.7794 315.487 30.6123 315.487 32.5455H319.487H323.487C323.487 32.0543 323.606 31.5388 323.929 30.9504L320.424 29.0227ZM319.487 32.5455H315.487C315.487 34.6569 316.064 36.675 317.056 38.5581L320.595 36.6932L324.134 34.8282C323.649 33.9083 323.487 33.1613 323.487 32.5455H319.487ZM320.595 36.6932L317.087 38.6153C317.97 40.2267 319.058 41.8342 320.329 43.4384L323.464 40.9545L326.6 38.4707C325.56 37.1583 324.735 35.9248 324.103 34.771L320.595 36.6932ZM323.464 40.9545L320.365 43.4831C321.544 44.9284 322.761 46.4114 324.015 47.9319L327.101 45.3864L330.186 42.8408C328.941 41.331 327.733 39.8594 326.564 38.426L323.464 40.9545ZM327.101 45.3864L324.006 47.9205L350.71 80.5341L353.805 78L356.9 75.4659L330.195 42.8522L327.101 45.3864ZM353.805 78V74H345.737V78V82H353.805V78ZM345.737 78L348.816 75.447L326.771 48.8561L323.692 51.4091L320.612 53.9621L342.658 80.553L345.737 78ZM323.692 51.4091L326.768 48.853C324.723 46.3912 322.867 44.1567 321.201 42.1495L318.123 44.7045L315.046 47.2596C316.713 49.2676 318.569 51.5028 320.615 53.9652L323.692 51.4091ZM318.123 44.7045L321.201 42.1495C319.691 40.3302 318.543 38.6008 317.717 36.9643L314.146 38.767L310.575 40.5698C311.719 42.8348 313.223 45.0637 315.046 47.2596L318.123 44.7045ZM314.146 38.767L317.717 36.9643C317.026 35.5952 316.669 34.1042 316.669 32.4318H312.669H308.669C308.669 35.3049 309.297 38.0373 310.575 40.5698L314.146 38.767ZM312.669 32.4318H316.669C316.669 30.425 317.106 28.8522 317.852 27.5805L314.402 25.5568L310.951 23.5331C309.387 26.2008 308.669 29.2113 308.669 32.4318H312.669ZM314.402 25.5568L317.846 27.5906C318.63 26.2625 319.709 25.2342 321.169 24.4713L319.317 20.9261L317.464 17.3809C314.719 18.8151 312.522 20.8739 310.957 23.523L314.402 25.5568ZM319.317 20.9261L321.181 24.4651C322.63 23.7018 324.449 23.25 326.76 23.25V19.25V15.25C323.389 15.25 320.246 15.9156 317.452 17.3871L319.317 20.9261ZM326.76 19.25V23.25C329.157 23.25 330.984 23.7152 332.386 24.4734L334.288 20.9545L336.19 17.4357C333.388 15.9211 330.196 15.25 326.76 15.25V19.25ZM334.288 20.9545L332.411 24.4866C333.943 25.3011 335.006 26.3133 335.735 27.5034L339.146 25.4148L342.557 23.3262C341.013 20.8041 338.838 18.8429 336.166 17.4225L334.288 20.9545ZM339.146 25.4148L335.744 27.519C336.49 28.7242 336.851 29.9938 336.851 31.4091H340.851H344.851C344.851 28.5062 344.075 25.7795 342.548 23.3106L339.146 25.4148ZM340.851 31.4091H336.851C336.851 33.5003 336.343 35.1118 335.463 36.4134L338.777 38.6534L342.091 40.8934C343.976 38.1041 344.851 34.886 344.851 31.4091H340.851ZM338.777 38.6534L335.463 36.4134C334.381 38.0145 332.84 39.6014 330.748 41.1453L333.123 44.3636L335.499 47.5819C338.18 45.6031 340.408 43.3833 342.091 40.8934L338.777 38.6534ZM333.123 44.3636L330.733 41.1561L319.143 49.7925L321.532 53L323.922 56.2075L335.513 47.5712L333.123 44.3636ZM321.532 53L319.155 49.7833C316.307 51.8884 313.985 54.2047 312.657 56.8065L316.22 58.625L319.783 60.4435C320.311 59.4089 321.531 57.9753 323.91 56.2167L321.532 53ZM316.22 58.625L312.657 56.8065C312.147 57.8058 311.717 58.7556 311.406 59.6303C311.118 60.4435 310.828 61.4735 310.828 62.5455H314.828H318.828C318.828 62.7177 318.805 62.787 318.821 62.7151C318.835 62.652 318.87 62.5199 318.945 62.3072C319.099 61.8751 319.365 61.2624 319.783 60.4435L316.22 58.625ZM314.828 62.5455H310.828C310.828 65.0982 311.503 67.5058 312.822 69.6947L316.248 67.6307L319.675 65.5666C319.099 64.6116 318.828 63.6291 318.828 62.5455H314.828ZM316.248 67.6307L312.822 69.6947C314.155 71.9067 316.017 73.6484 318.298 74.9269L320.254 71.4375L322.21 67.9481C321.044 67.2948 320.236 66.4986 319.675 65.5666L316.248 67.6307ZM320.254 71.4375L318.298 74.9269C320.714 76.2804 323.427 76.8864 326.305 76.8864V72.8864V68.8864C324.563 68.8864 323.241 68.5264 322.21 67.9481L320.254 71.4375ZM326.305 72.8864V76.8864C329.084 76.8864 331.778 76.2955 334.353 75.1482L332.726 71.4943L331.098 67.8404C329.507 68.5492 327.92 68.8864 326.305 68.8864V72.8864ZM332.726 71.4943L334.381 75.1358C336.967 73.9603 339.269 72.2818 341.284 70.1535L338.379 67.4034L335.474 64.6533C334.118 66.0856 332.651 67.1344 331.07 67.8529L332.726 71.4943ZM338.379 67.4034L341.268 70.1697C343.363 67.9816 344.977 65.3886 346.135 62.4491L342.413 60.983L338.691 59.5169C337.88 61.5774 336.804 63.2646 335.49 64.6371L338.379 67.4034ZM342.413 60.983L346.125 62.4734C347.347 59.43 347.919 56.1005 347.919 52.5455H343.919H339.919C339.919 55.2404 339.487 57.5359 338.701 59.4925L342.413 60.983ZM343.919 52.5455V56.5455H350.396V52.5455V48.5455H343.919V52.5455ZM350.396 52.5455H346.396C346.396 56.147 345.975 58.7903 345.303 60.6364L349.061 62.0057L352.819 63.375C353.927 60.3347 354.396 56.6712 354.396 52.5455H350.396ZM349.061 62.0057L345.303 60.6364C344.5 62.8387 343.682 64.31 342.939 65.23L346.049 67.7443L349.16 70.2587C350.652 68.4135 351.841 66.059 352.819 63.375L349.061 62.0057ZM346.049 67.7443L342.939 65.23C341.849 66.5778 341.054 67.4808 340.522 68.0125L343.351 70.8409L346.179 73.6693C347.011 72.8374 348.015 71.676 349.16 70.2587L346.049 67.7443ZM343.351 70.8409L340.227 68.3421C339.932 68.7107 339.655 69.088 339.397 69.4744L342.726 71.6932L346.054 73.912C346.175 73.7301 346.314 73.5393 346.474 73.3397L343.351 70.8409ZM342.726 71.6932L339.397 69.4744C339.276 69.6562 339.137 69.8471 338.977 70.0467L342.101 72.5455L345.224 75.0442C345.519 74.6757 345.796 74.2983 346.054 73.912L342.726 71.6932ZM342.101 72.5455L339.115 69.883C337.715 71.4528 335.92 72.6688 333.629 73.5029L334.998 77.2614L336.367 81.0198C339.797 79.7706 342.736 77.8426 345.086 75.2079L342.101 72.5455ZM334.998 77.2614L333.651 73.495C331.185 74.3772 328.818 74.7955 326.532 74.7955V78.7955V82.7955C329.816 82.7955 333.092 82.191 336.345 81.0278L334.998 77.2614ZM452.136 78H448.136V82H452.136V78ZM452.136 19.8182V15.8182H448.136V19.8182H452.136ZM459.182 19.8182H463.182V15.8182H459.182V19.8182ZM459.182 48.6818H455.182V52.6818H459.182V48.6818ZM459.863 48.6818V52.6818H461.638L462.828 51.3667L459.863 48.6818ZM486 19.8182V15.8182H484.226L483.035 17.1333L486 19.8182ZM495.204 19.8182L498.132 22.5434L504.392 15.8182H495.204V19.8182ZM470.773 46.0682L467.845 43.343L465.543 45.8158L467.596 48.4988L470.773 46.0682ZM495.204 78V82H503.301L498.381 75.5694L495.204 78ZM486.682 78L483.478 80.3957L484.678 82H486.682V78ZM466.454 50.9545L469.658 48.5589L466.722 44.6332L463.465 48.2971L466.454 50.9545ZM459.182 59.1364L456.192 56.4789L455.182 57.6156V59.1364H459.182ZM459.182 78V82H463.182V78H459.182ZM452.136 78H456.136V19.8182H452.136H448.136V78H452.136ZM452.136 19.8182V23.8182H459.182V19.8182V15.8182H452.136V19.8182ZM459.182 19.8182H455.182V48.6818H459.182H463.182V19.8182H459.182ZM459.182 48.6818V52.6818H459.863V48.6818V44.6818H459.182V48.6818ZM459.863 48.6818L462.828 51.3667L488.965 22.5031L486 19.8182L483.035 17.1333L456.898 45.9969L459.863 48.6818ZM486 19.8182V23.8182H495.204V19.8182V15.8182H486V19.8182ZM495.204 19.8182L492.276 17.093L467.845 43.343L470.773 46.0682L473.701 48.7934L498.132 22.5434L495.204 19.8182ZM470.773 46.0682L467.596 48.4988L492.028 80.4306L495.204 78L498.381 75.5694L473.949 43.6375L470.773 46.0682ZM495.204 78V74H486.682V78V82H495.204V78ZM486.682 78L489.885 75.6043L469.658 48.5589L466.454 50.9545L463.251 53.3502L483.478 80.3957L486.682 78ZM466.454 50.9545L463.465 48.2971L456.192 56.4789L459.182 59.1364L462.171 61.7938L469.444 53.612L466.454 50.9545ZM459.182 59.1364H455.182V78H459.182H463.182V59.1364H459.182ZM459.182 78V74H452.136V78V82H459.182V78ZM549.324 78H545.324V82H549.324V78ZM549.324 19.8182V15.8182H545.324V19.8182H549.324ZM556.369 19.8182H560.369V15.8182H556.369V19.8182ZM556.369 45.7273H552.369V49.7273H556.369V45.7273ZM587.392 45.7273V49.7273H591.392V45.7273H587.392ZM587.392 19.8182V15.8182H583.392V19.8182H587.392ZM594.437 19.8182H598.437V15.8182H594.437V19.8182ZM594.437 78V82H598.437V78H594.437ZM587.392 78H583.392V82H587.392V78ZM587.392 51.9773H591.392V47.9773H587.392V51.9773ZM556.369 51.9773V47.9773H552.369V51.9773H556.369ZM556.369 78V82H560.369V78H556.369ZM549.324 78H553.324V19.8182H549.324H545.324V78H549.324ZM549.324 19.8182V23.8182H556.369V19.8182V15.8182H549.324V19.8182ZM556.369 19.8182H552.369V45.7273H556.369H560.369V19.8182H556.369ZM556.369 45.7273V49.7273H587.392V45.7273V41.7273H556.369V45.7273ZM587.392 45.7273H591.392V19.8182H587.392H583.392V45.7273H587.392ZM587.392 19.8182V23.8182H594.437V19.8182V15.8182H587.392V19.8182ZM594.437 19.8182H590.437V78H594.437H598.437V19.8182H594.437ZM594.437 78V74H587.392V78V82H594.437V78ZM587.392 78H591.392V51.9773H587.392H583.392V78H587.392ZM587.392 51.9773V47.9773H556.369V51.9773V55.9773H587.392V51.9773ZM556.369 51.9773H552.369V78H556.369H560.369V51.9773H556.369ZM556.369 78V74H549.324V78V82H556.369V78ZM655.929 78V82H658.753L659.698 79.3381L655.929 78ZM648.542 78L644.788 76.6213L642.812 82H648.542V78ZM669.906 19.8182V15.8182H667.114L666.151 18.4394L669.906 19.8182ZM677.179 19.8182L680.934 18.4394L679.971 15.8182H677.179V19.8182ZM698.542 78V82H704.272L702.297 76.6213L698.542 78ZM691.156 78L687.386 79.3381L688.331 82H691.156V78ZM673.77 29.0227L677.539 27.6846L676.594 25.0227H673.77V29.0227ZM673.315 29.0227V25.0227H670.491L669.546 27.6846L673.315 29.0227ZM658.656 55.2727V51.2727H654.656V55.2727H658.656ZM688.429 55.2727H692.429V51.2727H688.429V55.2727ZM688.429 61.5227V65.5227H692.429V61.5227H688.429ZM658.656 61.5227H654.656V65.5227H658.656V61.5227ZM655.929 78V74H648.542V78V82H655.929V78ZM648.542 78L652.297 79.3787L673.661 21.1969L669.906 19.8182L666.151 18.4394L644.788 76.6213L648.542 78ZM669.906 19.8182V23.8182H677.179V19.8182V15.8182H669.906V19.8182ZM677.179 19.8182L673.424 21.1969L694.788 79.3787L698.542 78L702.297 76.6213L680.934 18.4394L677.179 19.8182ZM698.542 78V74H691.156V78V82H698.542V78ZM691.156 78L694.926 76.6619L677.539 27.6846L673.77 29.0227L670 30.3609L687.386 79.3381L691.156 78ZM673.77 29.0227V25.0227H673.315V29.0227V33.0227H673.77V29.0227ZM673.315 29.0227L669.546 27.6846L652.159 76.6619L655.929 78L659.698 79.3381L677.085 30.3609L673.315 29.0227ZM658.656 55.2727V59.2727H688.429V55.2727V51.2727H658.656V55.2727ZM688.429 55.2727H684.429V61.5227H688.429H692.429V55.2727H688.429ZM688.429 61.5227V57.5227H658.656V61.5227V65.5227H688.429V61.5227ZM658.656 61.5227H662.656V55.2727H658.656H654.656V61.5227H658.656ZM798.741 19.8182H802.741V15.8182H798.741V19.8182ZM798.741 78V82H802.741V78H798.741ZM791.923 78L788.637 80.2807L789.83 82H791.923V78ZM760.219 32.3182L763.505 30.0375L762.311 28.3182H760.219V32.3182ZM759.65 32.3182V28.3182H755.65V32.3182H759.65ZM759.65 78V82H763.65V78H759.65ZM752.605 78H748.605V82H752.605V78ZM752.605 19.8182V15.8182H748.605V19.8182H752.605ZM759.423 19.8182L762.708 17.5358L761.515 15.8182H759.423V19.8182ZM791.241 65.6136L787.956 67.896L789.15 69.6136H791.241V65.6136ZM791.809 65.6136V69.6136H795.809V65.6136H791.809ZM791.809 19.8182V15.8182H787.809V19.8182H791.809ZM798.741 19.8182H794.741V78H798.741H802.741V19.8182H798.741ZM798.741 78V74H791.923V78V82H798.741V78ZM791.923 78L795.209 75.7193L763.505 30.0375L760.219 32.3182L756.932 34.5988L788.637 80.2807L791.923 78ZM760.219 32.3182V28.3182H759.65V32.3182V36.3182H760.219V32.3182ZM759.65 32.3182H755.65V78H759.65H763.65V32.3182H759.65ZM759.65 78V74H752.605V78V82H759.65V78ZM752.605 78H756.605V19.8182H752.605H748.605V78H752.605ZM752.605 19.8182V23.8182H759.423V19.8182V15.8182H752.605V19.8182ZM759.423 19.8182L756.138 22.1005L787.956 67.896L791.241 65.6136L794.526 63.3313L762.708 17.5358L759.423 19.8182ZM791.241 65.6136V69.6136H791.809V65.6136V61.6136H791.241V65.6136ZM791.809 65.6136H795.809V19.8182H791.809H787.809V65.6136H791.809ZM791.809 19.8182V23.8182H798.741V19.8182V15.8182H791.809V19.8182ZM862.839 19.8182H866.839V15.8182H862.839V19.8182ZM861.987 29.9034L858.18 28.6754L858.176 28.6881L858.172 28.7009L861.987 29.9034ZM859.544 34.9886L856.198 32.7965L856.192 32.8059L859.544 34.9886ZM855.68 39.25L853.158 42.3545L855.661 44.3881L858.179 42.3735L855.68 39.25ZM852.044 36.2955L848.767 34.0016L846.632 37.052L849.521 39.3999L852.044 36.2955ZM855.14 30.983L851.534 29.2532L851.53 29.2611L851.526 29.269L855.14 30.983ZM856.476 19.8182V15.8182H852.476V19.8182H856.476ZM862.839 19.8182H858.839V24.9318H862.839H866.839V19.8182H862.839ZM862.839 24.9318H858.839C858.839 25.9969 858.644 27.237 858.18 28.6754L861.987 29.9034L865.794 31.1314C866.466 29.0471 866.839 26.9728 866.839 24.9318H862.839ZM861.987 29.9034L858.172 28.7009C857.741 30.0673 857.092 31.4317 856.198 32.7965L859.544 34.9886L862.89 37.1807C864.155 35.2501 865.134 33.2244 865.802 31.106L861.987 29.9034ZM859.544 34.9886L856.192 32.8059C855.363 34.0783 854.363 35.181 853.181 36.1265L855.68 39.25L858.179 42.3735C860.027 40.8947 861.603 39.1565 862.896 37.1713L859.544 34.9886ZM855.68 39.25L858.203 36.1455L854.566 33.191L852.044 36.2955L849.521 39.3999L853.158 42.3545L855.68 39.25ZM852.044 36.2955L855.321 38.5893C856.639 36.7055 857.785 34.7411 858.755 32.6969L855.14 30.983L851.526 29.269C850.753 30.8991 849.835 32.4763 848.767 34.0016L852.044 36.2955ZM855.14 30.983L858.747 32.7127C859.902 30.305 860.476 27.7333 860.476 25.0455H856.476H852.476C852.476 26.5621 852.159 27.9488 851.534 29.2532L855.14 30.983ZM856.476 25.0455H860.476V19.8182H856.476H852.476V25.0455H856.476ZM856.476 19.8182V23.8182H862.839V19.8182V15.8182H856.476V19.8182ZM949.423 34.3636L945.451 34.834L945.869 38.3636H949.423V34.3636ZM945.275 27.6591L943.081 31.0033V31.0033L945.275 27.6591ZM929.594 26.5227L928.009 22.8499L928.003 22.8527L927.996 22.8556L929.594 26.5227ZM925.105 29.9602L921.89 27.5803L921.88 27.5939L921.87 27.6075L925.105 29.9602ZM924.622 38.9375L921.285 41.1432L921.307 41.176L921.329 41.2084L924.622 38.9375ZM927.52 41.6932L925.39 45.079L925.41 45.0914L925.429 45.1036L927.52 41.6932ZM931.213 43.483L929.833 47.2373L929.857 47.2462L929.882 47.2549L931.213 43.483ZM934.764 44.5909L935.804 40.7284L935.793 40.7255L935.782 40.7226L934.764 44.5909ZM940.673 46.1818L939.633 50.0443L939.645 50.0476L939.657 50.0507L940.673 46.1818ZM945.73 47.8295L944.317 51.5717L944.33 51.5764L945.73 47.8295ZM951.099 50.6989L948.781 53.9587L948.802 53.9733L948.822 53.9876L951.099 50.6989ZM955.361 55.3011L958.797 53.2534V53.2534L955.361 55.3011ZM954.565 70.7273L951.21 68.5491L951.204 68.5579L951.199 68.5668L954.565 70.7273ZM947.406 76.7784L945.687 73.1666L945.679 73.1706L947.406 76.7784ZM925.19 77.0057L923.568 80.6619L923.576 80.6656L925.19 77.0057ZM918.031 71.3807L914.78 73.7105L914.786 73.7189L914.792 73.7273L918.031 71.3807ZM915.105 63V59H910.809L911.115 63.285L915.105 63ZM922.378 63L926.363 62.6564L926.048 59H922.378V63ZM924.594 68.4545L921.613 71.1217L921.631 71.1424L921.65 71.1628L924.594 68.4545ZM929.537 71.6364L928.207 75.409L928.229 75.4166L928.25 75.4239L929.537 71.6364ZM943.258 71.3523L944.766 75.0571L944.78 75.0514L944.794 75.0455L943.258 71.3523ZM948.344 67.6591L951.474 70.1487L951.482 70.1395L951.489 70.1304L948.344 67.6591ZM948.599 57.375L951.586 54.7146V54.7146L948.599 57.375ZM944.338 54.4205L942.757 58.095H942.757L944.338 54.4205ZM938.628 52.4318L937.529 56.2779L937.543 56.282L937.557 56.2859L938.628 52.4318ZM931.469 50.3864L930.363 54.2306L930.37 54.2325L931.469 50.3864ZM920.673 44.7898L917.974 47.7419V47.7419L920.673 44.7898ZM919.338 26.75L916.105 24.3943L916.102 24.3988L919.338 26.75ZM926.497 21.0682L928.136 24.7167L928.147 24.712L926.497 21.0682ZM946.582 21.0398L944.907 24.6723L944.917 24.6768L944.927 24.6812L946.582 21.0398ZM953.514 26.4943L950.295 28.8689L950.301 28.8774L950.308 28.8859L953.514 26.4943ZM956.241 34.3636V38.3636H960.372L960.239 34.2347L956.241 34.3636ZM949.423 34.3636L953.395 33.8932C952.915 29.8406 950.882 26.554 947.47 24.3149L945.275 27.6591L943.081 31.0033C944.517 31.946 945.249 33.1291 945.451 34.834L949.423 34.3636ZM945.275 27.6591L947.47 24.3149C944.265 22.2119 940.488 21.2727 936.355 21.2727V25.2727V29.2727C939.267 29.2727 941.437 29.9244 943.081 31.0033L945.275 27.6591ZM936.355 25.2727V21.2727C933.353 21.2727 930.54 21.7581 928.009 22.8499L929.594 26.5227L931.178 30.1956C932.511 29.6207 934.205 29.2727 936.355 29.2727V25.2727ZM929.594 26.5227L927.996 22.8556C925.538 23.9263 923.446 25.4787 921.89 27.5803L925.105 29.9602L928.32 32.3401C928.923 31.5251 929.823 30.7858 931.191 30.1898L929.594 26.5227ZM925.105 29.9602L921.87 27.6075C920.297 29.7707 919.514 32.2569 919.514 34.9318H923.514H927.514C927.514 33.8946 927.792 33.0664 928.34 32.3129L925.105 29.9602ZM923.514 34.9318H919.514C919.514 37.1411 920.048 39.2722 921.285 41.1432L924.622 38.9375L927.959 36.7318C927.718 36.368 927.514 35.8286 927.514 34.9318H923.514ZM924.622 38.9375L921.329 41.2084C922.407 42.7713 923.775 44.0632 925.39 45.079L927.52 41.6932L929.649 38.3073C928.916 37.8459 928.352 37.3007 927.915 36.6666L924.622 38.9375ZM927.52 41.6932L925.429 45.1036C926.828 45.9605 928.296 46.6725 929.833 47.2373L931.213 43.483L932.593 39.7286C931.554 39.3465 930.56 38.8652 929.61 38.2828L927.52 41.6932ZM931.213 43.483L929.882 47.2549C931.251 47.7382 932.541 48.142 933.746 48.4592L934.764 44.5909L935.782 40.7226C934.828 40.4717 933.751 40.1368 932.544 39.711L931.213 43.483ZM934.764 44.5909L933.724 48.4534L939.633 50.0443L940.673 46.1818L941.713 42.3194L935.804 40.7284L934.764 44.5909ZM940.673 46.1818L939.657 50.0507C941.008 50.4053 942.559 50.9078 944.317 51.5717L945.73 47.8295L947.143 44.0874C945.189 43.3497 943.368 42.7538 941.689 42.3129L940.673 46.1818ZM945.73 47.8295L944.33 51.5764C945.864 52.1501 947.347 52.9391 948.781 53.9587L951.099 50.6989L953.417 47.439C951.442 46.0344 949.345 44.9105 947.13 44.0827L945.73 47.8295ZM951.099 50.6989L948.822 53.9876C950.056 54.8414 951.088 55.945 951.924 57.3489L955.361 55.3011L958.797 53.2534C957.398 50.9073 955.59 48.9427 953.376 47.4101L951.099 50.6989ZM955.361 55.3011L951.924 57.3489C952.591 58.4676 953.037 60.02 953.037 62.2045H957.037H961.037C961.037 58.9346 960.365 55.8847 958.797 53.2534L955.361 55.3011ZM957.037 62.2045H953.037C953.037 64.6072 952.42 66.6859 951.21 68.5491L954.565 70.7273L957.92 72.9055C960.006 69.6929 961.037 66.0898 961.037 62.2045H957.037ZM954.565 70.7273L951.199 68.5668C950.032 70.3845 948.264 71.9405 945.687 73.1666L947.406 76.7784L949.125 80.3903C952.836 78.6239 955.841 76.1458 957.931 72.8878L954.565 70.7273ZM947.406 76.7784L945.679 73.1706C943.226 74.345 940.053 75.0227 936.014 75.0227V79.0227V83.0227C940.914 83.0227 945.336 82.2042 949.133 80.3862L947.406 76.7784ZM936.014 79.0227V75.0227C932.268 75.0227 929.234 74.4175 926.804 73.3458L925.19 77.0057L923.576 80.6656C927.244 82.2832 931.426 83.0227 936.014 83.0227V79.0227ZM925.19 77.0057L926.813 73.3495C924.351 72.257 922.552 70.8035 921.27 69.0341L918.031 71.3807L914.792 73.7273C916.995 76.7685 919.969 79.065 923.568 80.6619L925.19 77.0057ZM918.031 71.3807L921.283 69.0509C920.023 67.2928 919.274 65.2198 919.095 62.715L915.105 63L911.115 63.285C911.391 67.1438 912.592 70.6579 914.78 73.7105L918.031 71.3807ZM915.105 63V67H922.378V63V59H915.105V63ZM922.378 63L918.392 63.3436C918.645 66.2757 919.667 68.9475 921.613 71.1217L924.594 68.4545L927.575 65.7874C926.944 65.0828 926.489 64.1182 926.363 62.6564L922.378 63ZM924.594 68.4545L921.65 71.1628C923.44 73.1082 925.66 74.5113 928.207 75.409L929.537 71.6364L930.866 67.8637C929.436 67.3599 928.361 66.6418 927.537 65.7463L924.594 68.4545ZM929.537 71.6364L928.25 75.4239C930.708 76.2585 933.305 76.6591 936.014 76.6591V72.6591V68.6591C934.102 68.6591 932.381 68.3779 930.823 67.8488L929.537 71.6364ZM936.014 72.6591V76.6591C939.137 76.6591 942.076 76.1525 944.766 75.0571L943.258 71.3523L941.75 67.6475C940.161 68.2945 938.27 68.6591 936.014 68.6591V72.6591ZM943.258 71.3523L944.794 75.0455C947.462 73.9359 949.742 72.327 951.474 70.1487L948.344 67.6591L945.213 65.1695C944.445 66.1351 943.335 66.9883 941.722 67.659L943.258 71.3523ZM948.344 67.6591L951.489 70.1304C953.321 67.7989 954.219 65.0617 954.219 62.0909H950.219H946.219C946.219 63.3625 945.866 64.3375 945.198 65.1878L948.344 67.6591ZM950.219 62.0909H954.219C954.219 59.3748 953.438 56.794 951.586 54.7146L948.599 57.375L945.612 60.0354C945.919 60.3802 946.219 60.9433 946.219 62.0909H950.219ZM948.599 57.375L951.586 54.7146C950.053 52.9935 948.121 51.6932 945.918 50.7459L944.338 54.4205L942.757 58.095C944.078 58.6629 944.986 59.3322 945.612 60.0354L948.599 57.375ZM944.338 54.4205L945.918 50.7459C943.975 49.91 941.899 49.1892 939.698 48.5777L938.628 52.4318L937.557 56.2859C939.447 56.8108 941.178 57.4158 942.757 58.095L944.338 54.4205ZM938.628 52.4318L939.727 48.5857L932.567 46.5403L931.469 50.3864L930.37 54.2325L937.529 56.2779L938.628 52.4318ZM931.469 50.3864L932.574 46.5421C928.441 45.354 925.448 43.7353 923.372 41.8377L920.673 44.7898L917.974 47.7419C921.201 50.6927 925.405 52.8051 930.363 54.2306L931.469 50.3864ZM920.673 44.7898L923.372 41.8377C921.63 40.2451 920.696 38.1846 920.696 35.2727H916.696H912.696C912.696 40.2017 914.413 44.4859 917.974 47.7419L920.673 44.7898ZM916.696 35.2727H920.696C920.696 32.7823 921.353 30.7818 922.574 29.1012L919.338 26.75L916.102 24.3988C913.8 27.5667 912.696 31.248 912.696 35.2727H916.696ZM919.338 26.75L922.571 29.1057C923.907 27.272 925.723 25.8014 928.136 24.7167L926.497 21.0682L924.857 17.4196C921.286 19.0244 918.33 21.3416 916.105 24.3943L919.338 26.75ZM926.497 21.0682L928.147 24.712C930.58 23.6104 933.369 23.0227 936.582 23.0227V19.0227V15.0227C932.371 15.0227 928.437 15.7987 924.847 17.4244L926.497 21.0682ZM936.582 19.0227V23.0227C939.85 23.0227 942.597 23.607 944.907 24.6723L946.582 21.0398L948.257 17.4072C944.734 15.7832 940.814 15.0227 936.582 15.0227V19.0227ZM946.582 21.0398L944.927 24.6812C947.296 25.7582 949.041 27.1683 950.295 28.8689L953.514 26.4943L956.733 24.1197C954.578 21.1991 951.701 18.9729 948.237 17.3983L946.582 21.0398ZM953.514 26.4943L950.308 28.8859C951.532 30.5278 952.174 32.3579 952.243 34.4926L956.241 34.3636L960.239 34.2347C960.119 30.4982 958.943 27.082 956.72 24.1027L953.514 26.4943ZM956.241 34.3636V30.3636H949.423V34.3636V38.3636H956.241V34.3636Z" fill="#5E1414" mask="url(#path-1-outside-1_2003_6)"/>
<mask id="path-3-outside-2_2003_6" maskUnits="userSpaceOnUse" x="1.68445" y="122" width="961" height="107" fill="black">
<rect fill="white" x="1.68445" y="122" width="961" height="107"/>
<path d="M73.8379 158.5C72.8613 155.511 71.574 152.833 69.976 150.466C68.4076 148.069 66.5284 146.027 64.3386 144.34C62.1783 142.653 59.7221 141.366 56.97 140.478C54.2178 139.59 51.1994 139.146 47.9146 139.146C42.5287 139.146 37.6311 140.537 33.2217 143.319C28.8124 146.101 25.3057 150.199 22.7015 155.615C20.0973 161.03 18.7952 167.674 18.7952 175.545C18.7952 183.417 20.1121 190.061 22.7459 195.476C25.3796 200.892 28.9456 204.99 33.4437 207.772C37.9418 210.554 43.0022 211.945 48.6248 211.945C53.8331 211.945 58.42 210.835 62.3854 208.615C66.3805 206.366 69.4877 203.2 71.7072 199.116C73.9562 195.003 75.0808 190.164 75.0808 184.601L78.4543 185.311H51.1106V175.545H85.7342V185.311C85.7342 192.798 84.1362 199.308 80.9401 204.842C77.7737 210.376 73.394 214.667 67.8009 217.715C62.2375 220.734 55.8454 222.243 48.6248 222.243C40.5755 222.243 33.5029 220.349 27.4068 216.561C21.3402 212.773 16.6054 207.387 13.2022 200.403C9.82862 193.42 8.14183 185.134 8.14183 175.545C8.14183 168.354 9.1036 161.888 11.0271 156.147C12.9803 150.377 15.7324 145.464 19.2835 141.41C22.8347 137.356 27.0368 134.249 31.8901 132.088C36.7433 129.928 42.0848 128.848 47.9146 128.848C52.7086 128.848 57.1771 129.573 61.3201 131.023C65.4927 132.444 69.2066 134.471 72.4618 137.104C75.7466 139.709 78.4839 142.831 80.6738 146.471C82.8637 150.081 84.3729 154.091 85.2015 158.5H73.8379ZM104.588 221V130.091H135.306C142.408 130.091 148.238 131.304 152.795 133.731C157.352 136.128 160.726 139.427 162.916 143.63C165.106 147.832 166.201 152.611 166.201 157.967C166.201 163.324 165.106 168.073 162.916 172.216C160.726 176.359 157.367 179.614 152.84 181.982C148.312 184.32 142.526 185.489 135.483 185.489H110.625V175.545H135.128C139.981 175.545 143.888 174.835 146.847 173.415C149.836 171.994 151.996 169.982 153.328 167.378C154.689 164.744 155.37 161.607 155.37 157.967C155.37 154.327 154.689 151.146 153.328 148.424C151.967 145.701 149.791 143.6 146.803 142.12C143.814 140.611 139.863 139.857 134.951 139.857H115.597V221H104.588ZM147.38 180.162L169.752 221H156.968L134.951 180.162H147.38ZM184.545 221V130.091H239.41V139.857H195.553V170.574H236.569V180.339H195.553V211.234H240.12V221H184.545ZM259.252 221V130.091H314.117V139.857H270.26V170.574H311.276V180.339H270.26V211.234H314.827V221H259.252ZM406.047 130.091V221H395.393L345.855 149.622H344.967V221H333.959V130.091H344.612L394.328 201.646H395.216V130.091H406.047ZM479.744 221L454.886 130.091H466.072L485.071 204.132H485.958L505.312 130.091H517.741L537.095 204.132H537.982L556.981 130.091H568.167L543.309 221H531.946L511.882 148.557H511.171L491.107 221H479.744ZM581.883 221V130.091H592.892V170.574H641.365V130.091H652.373V221H641.365V180.339H592.892V221H581.883ZM674.413 221V130.091H729.278V139.857H685.421V170.574H726.437V180.339H685.421V211.234H729.988V221H674.413ZM749.12 221V130.091H803.985V139.857H760.128V170.574H801.144V180.339H760.128V211.234H804.695V221H749.12ZM823.827 221V130.091H834.835V211.234H877.094V221H823.827ZM943.855 152.818C943.323 148.32 941.162 144.828 937.374 142.342C933.586 139.857 928.94 138.614 923.436 138.614C919.412 138.614 915.89 139.265 912.872 140.567C909.883 141.869 907.545 143.659 905.858 145.938C904.201 148.216 903.372 150.806 903.372 153.706C903.372 156.133 903.949 158.219 905.103 159.965C906.287 161.681 907.796 163.116 909.631 164.271C911.466 165.395 913.389 166.327 915.402 167.067C917.414 167.777 919.264 168.354 920.95 168.798L930.183 171.284C932.551 171.906 935.184 172.764 938.085 173.859C941.014 174.954 943.811 176.448 946.474 178.342C949.167 180.206 951.387 182.603 953.133 185.533C954.878 188.463 955.751 192.058 955.751 196.32C955.751 201.232 954.464 205.671 951.89 209.636C949.345 213.602 945.616 216.753 940.704 219.091C935.821 221.429 929.887 222.598 922.903 222.598C916.393 222.598 910.756 221.547 905.991 219.446C901.256 217.345 897.528 214.416 894.805 210.657C892.112 206.899 890.588 202.534 890.233 197.562H901.597C901.893 200.995 903.047 203.836 905.059 206.085C907.101 208.305 909.675 209.962 912.783 211.057C915.92 212.122 919.293 212.655 922.903 212.655C927.106 212.655 930.879 211.974 934.223 210.613C937.567 209.222 940.215 207.299 942.168 204.842C944.122 202.357 945.098 199.456 945.098 196.142C945.098 193.124 944.255 190.667 942.568 188.773C940.881 186.879 938.662 185.341 935.91 184.157C933.157 182.973 930.183 181.937 926.987 181.05L915.801 177.854C908.699 175.812 903.076 172.897 898.933 169.109C894.79 165.321 892.719 160.364 892.719 154.239C892.719 149.149 894.095 144.71 896.847 140.922C899.629 137.104 903.357 134.145 908.033 132.044C912.738 129.913 917.991 128.848 923.791 128.848C929.651 128.848 934.859 129.899 939.416 132C943.974 134.071 947.584 136.912 950.247 140.522C952.94 144.133 954.361 148.231 954.509 152.818H943.855Z"/>
</mask>
<path d="M73.8379 158.5C72.8613 155.511 71.574 152.833 69.976 150.466C68.4076 148.069 66.5284 146.027 64.3386 144.34C62.1783 142.653 59.7221 141.366 56.97 140.478C54.2178 139.59 51.1994 139.146 47.9146 139.146C42.5287 139.146 37.6311 140.537 33.2217 143.319C28.8124 146.101 25.3057 150.199 22.7015 155.615C20.0973 161.03 18.7952 167.674 18.7952 175.545C18.7952 183.417 20.1121 190.061 22.7459 195.476C25.3796 200.892 28.9456 204.99 33.4437 207.772C37.9418 210.554 43.0022 211.945 48.6248 211.945C53.8331 211.945 58.42 210.835 62.3854 208.615C66.3805 206.366 69.4877 203.2 71.7072 199.116C73.9562 195.003 75.0808 190.164 75.0808 184.601L78.4543 185.311H51.1106V175.545H85.7342V185.311C85.7342 192.798 84.1362 199.308 80.9401 204.842C77.7737 210.376 73.394 214.667 67.8009 217.715C62.2375 220.734 55.8454 222.243 48.6248 222.243C40.5755 222.243 33.5029 220.349 27.4068 216.561C21.3402 212.773 16.6054 207.387 13.2022 200.403C9.82862 193.42 8.14183 185.134 8.14183 175.545C8.14183 168.354 9.1036 161.888 11.0271 156.147C12.9803 150.377 15.7324 145.464 19.2835 141.41C22.8347 137.356 27.0368 134.249 31.8901 132.088C36.7433 129.928 42.0848 128.848 47.9146 128.848C52.7086 128.848 57.1771 129.573 61.3201 131.023C65.4927 132.444 69.2066 134.471 72.4618 137.104C75.7466 139.709 78.4839 142.831 80.6738 146.471C82.8637 150.081 84.3729 154.091 85.2015 158.5H73.8379ZM104.588 221V130.091H135.306C142.408 130.091 148.238 131.304 152.795 133.731C157.352 136.128 160.726 139.427 162.916 143.63C165.106 147.832 166.201 152.611 166.201 157.967C166.201 163.324 165.106 168.073 162.916 172.216C160.726 176.359 157.367 179.614 152.84 181.982C148.312 184.32 142.526 185.489 135.483 185.489H110.625V175.545H135.128C139.981 175.545 143.888 174.835 146.847 173.415C149.836 171.994 151.996 169.982 153.328 167.378C154.689 164.744 155.37 161.607 155.37 157.967C155.37 154.327 154.689 151.146 153.328 148.424C151.967 145.701 149.791 143.6 146.803 142.12C143.814 140.611 139.863 139.857 134.951 139.857H115.597V221H104.588ZM147.38 180.162L169.752 221H156.968L134.951 180.162H147.38ZM184.545 221V130.091H239.41V139.857H195.553V170.574H236.569V180.339H195.553V211.234H240.12V221H184.545ZM259.252 221V130.091H314.117V139.857H270.26V170.574H311.276V180.339H270.26V211.234H314.827V221H259.252ZM406.047 130.091V221H395.393L345.855 149.622H344.967V221H333.959V130.091H344.612L394.328 201.646H395.216V130.091H406.047ZM479.744 221L454.886 130.091H466.072L485.071 204.132H485.958L505.312 130.091H517.741L537.095 204.132H537.982L556.981 130.091H568.167L543.309 221H531.946L511.882 148.557H511.171L491.107 221H479.744ZM581.883 221V130.091H592.892V170.574H641.365V130.091H652.373V221H641.365V180.339H592.892V221H581.883ZM674.413 221V130.091H729.278V139.857H685.421V170.574H726.437V180.339H685.421V211.234H729.988V221H674.413ZM749.12 221V130.091H803.985V139.857H760.128V170.574H801.144V180.339H760.128V211.234H804.695V221H749.12ZM823.827 221V130.091H834.835V211.234H877.094V221H823.827ZM943.855 152.818C943.323 148.32 941.162 144.828 937.374 142.342C933.586 139.857 928.94 138.614 923.436 138.614C919.412 138.614 915.89 139.265 912.872 140.567C909.883 141.869 907.545 143.659 905.858 145.938C904.201 148.216 903.372 150.806 903.372 153.706C903.372 156.133 903.949 158.219 905.103 159.965C906.287 161.681 907.796 163.116 909.631 164.271C911.466 165.395 913.389 166.327 915.402 167.067C917.414 167.777 919.264 168.354 920.95 168.798L930.183 171.284C932.551 171.906 935.184 172.764 938.085 173.859C941.014 174.954 943.811 176.448 946.474 178.342C949.167 180.206 951.387 182.603 953.133 185.533C954.878 188.463 955.751 192.058 955.751 196.32C955.751 201.232 954.464 205.671 951.89 209.636C949.345 213.602 945.616 216.753 940.704 219.091C935.821 221.429 929.887 222.598 922.903 222.598C916.393 222.598 910.756 221.547 905.991 219.446C901.256 217.345 897.528 214.416 894.805 210.657C892.112 206.899 890.588 202.534 890.233 197.562H901.597C901.893 200.995 903.047 203.836 905.059 206.085C907.101 208.305 909.675 209.962 912.783 211.057C915.92 212.122 919.293 212.655 922.903 212.655C927.106 212.655 930.879 211.974 934.223 210.613C937.567 209.222 940.215 207.299 942.168 204.842C944.122 202.357 945.098 199.456 945.098 196.142C945.098 193.124 944.255 190.667 942.568 188.773C940.881 186.879 938.662 185.341 935.91 184.157C933.157 182.973 930.183 181.937 926.987 181.05L915.801 177.854C908.699 175.812 903.076 172.897 898.933 169.109C894.79 165.321 892.719 160.364 892.719 154.239C892.719 149.149 894.095 144.71 896.847 140.922C899.629 137.104 903.357 134.145 908.033 132.044C912.738 129.913 917.991 128.848 923.791 128.848C929.651 128.848 934.859 129.899 939.416 132C943.974 134.071 947.584 136.912 950.247 140.522C952.94 144.133 954.361 148.231 954.509 152.818H943.855Z" fill="#8BB000"/>
<path d="M73.8379 158.5L68.1346 160.363L69.4861 164.5H73.8379V158.5ZM69.976 150.466L64.9553 153.751L64.9788 153.787L65.0029 153.822L69.976 150.466ZM64.3386 144.34L60.646 149.069L60.6615 149.081L60.6772 149.093L64.3386 144.34ZM56.97 140.478L58.812 134.768H58.812L56.97 140.478ZM22.7015 155.615L28.1088 158.215V158.215L22.7015 155.615ZM22.7459 195.476L17.3502 198.1V198.1L22.7459 195.476ZM33.4437 207.772L30.2879 212.875L33.4437 207.772ZM62.3854 208.615L65.3159 213.851L65.3224 213.847L65.3288 213.844L62.3854 208.615ZM71.7072 199.116L66.4427 196.238L66.4391 196.244L66.4354 196.251L71.7072 199.116ZM75.0808 184.601L76.3168 178.73L69.0808 177.206V184.601H75.0808ZM78.4543 185.311V191.311L79.6904 179.44L78.4543 185.311ZM51.1106 185.311H45.1106V191.311H51.1106V185.311ZM51.1106 175.545V169.545H45.1106V175.545H51.1106ZM85.7342 175.545H91.7342V169.545H85.7342V175.545ZM80.9401 204.842L75.7444 201.842L75.7384 201.852L75.7324 201.862L80.9401 204.842ZM67.8009 217.715L70.6622 222.989L70.6721 222.984L67.8009 217.715ZM27.4068 216.561L24.229 221.65L24.2401 221.657L27.4068 216.561ZM13.2022 200.403L7.79951 203.013L7.80399 203.022L7.8085 203.032L13.2022 200.403ZM11.0271 156.147L5.34384 154.224L5.34089 154.232L5.33797 154.241L11.0271 156.147ZM19.2835 141.41L23.7969 145.364V145.364L19.2835 141.41ZM31.8901 132.088L29.4501 126.607L31.8901 132.088ZM61.3201 131.023L59.338 136.686L59.3622 136.695L59.3865 136.703L61.3201 131.023ZM72.4618 137.104L68.6878 141.769L68.711 141.788L68.7343 141.806L72.4618 137.104ZM80.6738 146.471L75.5325 149.564L75.5381 149.573L75.5437 149.582L80.6738 146.471ZM85.2015 158.5V164.5H92.434L91.0983 157.392L85.2015 158.5ZM73.8379 158.5L79.5412 156.637C78.4089 153.171 76.8882 149.982 74.9491 147.109L69.976 150.466L65.0029 153.822C66.2598 155.684 67.3137 157.851 68.1346 160.363L73.8379 158.5ZM69.976 150.466L74.9967 147.18C73.0741 144.242 70.7411 141.698 67.9999 139.586L64.3386 144.34L60.6772 149.093C62.3158 150.355 63.7411 151.895 64.9553 153.751L69.976 150.466ZM64.3386 144.34L68.0312 139.611C65.2863 137.467 62.1965 135.86 58.812 134.768L56.97 140.478L55.1279 146.188C57.2477 146.872 59.0703 147.839 60.646 149.069L64.3386 144.34ZM56.97 140.478L58.812 134.768C55.39 133.664 51.7411 133.146 47.9146 133.146V139.146V145.146C50.6576 145.146 53.0457 145.517 55.1279 146.188L56.97 140.478ZM47.9146 139.146V133.146C41.435 133.146 35.4209 134.837 30.0203 138.244L33.2217 143.319L36.4231 148.393C39.8413 146.237 43.6223 145.146 47.9146 145.146V139.146ZM33.2217 143.319L30.0203 138.244C24.5196 141.715 20.3106 146.742 17.2942 153.014L22.7015 155.615L28.1088 158.215C30.3007 153.657 33.1052 150.487 36.4231 148.393L33.2217 143.319ZM22.7015 155.615L17.2942 153.014C14.1985 159.452 12.7952 167.041 12.7952 175.545H18.7952H24.7952C24.7952 168.306 25.9962 162.608 28.1088 158.215L22.7015 155.615ZM18.7952 175.545H12.7952C12.7952 184.058 14.2161 191.656 17.3502 198.1L22.7459 195.476L28.1416 192.852C26.0082 188.465 24.7952 182.776 24.7952 175.545H18.7952ZM22.7459 195.476L17.3502 198.1C20.4101 204.392 24.6947 209.416 30.2879 212.875L33.4437 207.772L36.5995 202.669C33.1964 200.564 30.3491 197.391 28.1416 192.852L22.7459 195.476ZM33.4437 207.772L30.2879 212.875C35.7947 216.281 41.9608 217.945 48.6248 217.945V211.945V205.945C44.0436 205.945 40.0889 204.827 36.5995 202.669L33.4437 207.772ZM48.6248 211.945V217.945C54.7074 217.945 60.3313 216.641 65.3159 213.851L62.3854 208.615L59.455 203.38C56.5087 205.029 52.9588 205.945 48.6248 205.945V211.945ZM62.3854 208.615L65.3288 213.844C70.321 211.033 74.2288 207.041 76.9789 201.981L71.7072 199.116L66.4354 196.251C64.7467 199.358 62.44 201.699 59.442 203.387L62.3854 208.615ZM71.7072 199.116L76.9716 201.995C79.786 196.847 81.0808 190.982 81.0808 184.601H75.0808H69.0808C69.0808 189.346 68.1264 193.158 66.4427 196.238L71.7072 199.116ZM75.0808 184.601L73.8447 190.472L77.2183 191.182L78.4543 185.311L79.6904 179.44L76.3168 178.73L75.0808 184.601ZM78.4543 185.311V179.311H51.1106V185.311V191.311H78.4543V185.311ZM51.1106 185.311H57.1106V175.545H51.1106H45.1106V185.311H51.1106ZM51.1106 175.545V181.545H85.7342V175.545V169.545H51.1106V175.545ZM85.7342 175.545H79.7342V185.311H85.7342H91.7342V175.545H85.7342ZM85.7342 185.311H79.7342C79.7342 191.927 78.3293 197.366 75.7444 201.842L80.9401 204.842L86.1359 207.843C89.943 201.251 91.7342 193.669 91.7342 185.311H85.7342ZM80.9401 204.842L75.7324 201.862C73.1173 206.433 69.5461 209.931 64.9298 212.447L67.8009 217.715L70.6721 222.984C77.2419 219.403 82.4301 214.32 86.1479 207.822L80.9401 204.842ZM67.8009 217.715L64.9396 212.441C60.3717 214.92 54.9883 216.243 48.6248 216.243V222.243V228.243C56.7025 228.243 64.1033 226.548 70.6622 222.989L67.8009 217.715ZM48.6248 222.243V216.243C41.5549 216.243 35.6067 214.592 30.5734 211.465L27.4068 216.561L24.2401 221.657C31.399 226.106 39.5962 228.243 48.6248 228.243V222.243ZM27.4068 216.561L30.5845 211.472C25.555 208.331 21.5501 203.838 18.5959 197.775L13.2022 200.403L7.8085 203.032C11.6606 210.937 17.1255 217.215 24.229 221.65L27.4068 216.561ZM13.2022 200.403L18.6049 197.794C15.7062 191.793 14.1418 184.439 14.1418 175.545H8.14183H2.14183C2.14183 185.829 3.95109 195.046 7.79951 203.013L13.2022 200.403ZM8.14183 175.545H14.1418C14.1418 168.884 15.0331 163.077 16.7163 158.054L11.0271 156.147L5.33797 154.241C3.1741 160.7 2.14183 167.825 2.14183 175.545H8.14183ZM11.0271 156.147L16.7104 158.071C18.4436 152.95 20.8288 148.752 23.7969 145.364L19.2835 141.41L14.7701 137.457C10.636 142.177 7.51693 147.803 5.34384 154.224L11.0271 156.147ZM19.2835 141.41L23.7969 145.364C26.7843 141.953 30.2822 139.372 34.33 137.57L31.8901 132.088L29.4501 126.607C23.7914 129.126 18.885 132.759 14.7701 137.457L19.2835 141.41ZM31.8901 132.088L34.33 137.57C38.3432 135.784 42.8428 134.848 47.9146 134.848V128.848V122.848C41.3267 122.848 35.1434 124.073 29.4501 126.607L31.8901 132.088ZM47.9146 128.848V134.848C52.0957 134.848 55.8881 135.479 59.338 136.686L61.3201 131.023L63.3022 125.36C58.4661 123.667 53.3214 122.848 47.9146 122.848V128.848ZM61.3201 131.023L59.3865 136.703C62.9262 137.908 66.01 139.602 68.6878 141.769L72.4618 137.104L76.2358 132.44C72.4032 129.339 68.0592 126.979 63.2537 125.343L61.3201 131.023ZM72.4618 137.104L68.7343 141.806C71.4476 143.957 73.7086 146.532 75.5325 149.564L80.6738 146.471L85.8151 143.377C83.2593 139.129 80.0456 135.46 76.1893 132.403L72.4618 137.104ZM80.6738 146.471L75.5437 149.582C77.3369 152.538 78.6009 155.863 79.3047 159.608L85.2015 158.5L91.0983 157.392C90.1449 152.319 88.3905 147.623 85.8039 143.359L80.6738 146.471ZM85.2015 158.5V152.5H73.8379V158.5V164.5H85.2015V158.5ZM104.588 221H98.5885V227H104.588V221ZM104.588 130.091V124.091H98.5885V130.091H104.588ZM152.795 133.731L149.975 139.027L149.989 139.034L150.002 139.041L152.795 133.731ZM162.916 143.63L157.595 146.402V146.402L162.916 143.63ZM162.916 172.216L157.611 169.412V169.412L162.916 172.216ZM152.84 181.982L155.592 187.313L155.606 187.306L155.62 187.299L152.84 181.982ZM110.625 185.489H104.625V191.489H110.625V185.489ZM110.625 175.545V169.545H104.625V175.545H110.625ZM146.847 173.415L144.272 167.996L144.261 168.001L144.251 168.006L146.847 173.415ZM153.328 167.378L147.998 164.623L147.992 164.635L147.986 164.646L153.328 167.378ZM146.803 142.12L144.098 147.476L144.119 147.487L144.141 147.498L146.803 142.12ZM115.597 139.857V133.857H109.597V139.857H115.597ZM115.597 221V227H121.597V221H115.597ZM147.38 180.162L152.642 177.279L150.934 174.162H147.38V180.162ZM169.752 221V227H179.88L175.014 218.117L169.752 221ZM156.968 221L151.686 223.847L153.386 227H156.968V221ZM134.951 180.162V174.162H124.899L129.669 183.009L134.951 180.162ZM104.588 221H110.588V130.091H104.588H98.5885V221H104.588ZM104.588 130.091V136.091H135.306V130.091V124.091H104.588V130.091ZM135.306 130.091V136.091C141.775 136.091 146.55 137.203 149.975 139.027L152.795 133.731L155.615 128.435C149.925 125.405 143.041 124.091 135.306 124.091V130.091ZM152.795 133.731L150.002 139.041C153.576 140.921 156.019 143.378 157.595 146.402L162.916 143.63L168.237 140.857C165.433 135.477 161.128 131.335 155.588 128.421L152.795 133.731ZM162.916 143.63L157.595 146.402C159.283 149.642 160.201 153.449 160.201 157.967H166.201H172.201C172.201 151.773 170.928 146.021 168.237 140.857L162.916 143.63ZM166.201 157.967H160.201C160.201 162.487 159.283 166.25 157.611 169.412L162.916 172.216L168.22 175.02C170.929 169.897 172.201 164.16 172.201 157.967H166.201ZM162.916 172.216L157.611 169.412C156.041 172.384 153.612 174.807 150.059 176.665L152.84 181.982L155.62 187.299C161.122 184.422 165.411 180.334 168.22 175.02L162.916 172.216ZM152.84 181.982L150.087 176.651C146.672 178.414 141.915 179.489 135.483 179.489V185.489V191.489C143.138 191.489 149.952 190.226 155.592 187.313L152.84 181.982ZM135.483 185.489V179.489H110.625V185.489V191.489H135.483V185.489ZM110.625 185.489H116.625V175.545H110.625H104.625V185.489H110.625ZM110.625 175.545V181.545H135.128V175.545V169.545H110.625V175.545ZM135.128 175.545V181.545C140.485 181.545 145.38 180.774 149.443 178.824L146.847 173.415L144.251 168.006C142.395 168.896 139.478 169.545 135.128 169.545V175.545ZM146.847 173.415L149.422 178.834C153.44 176.925 156.659 174.042 158.67 170.11L153.328 167.378L147.986 164.646C147.333 165.922 146.232 167.064 144.272 167.996L146.847 173.415ZM153.328 167.378L158.658 170.133C160.549 166.475 161.37 162.351 161.37 157.967H155.37H149.37C149.37 160.864 148.83 163.013 147.998 164.623L153.328 167.378ZM155.37 157.967H161.37C161.37 153.577 160.546 149.444 158.694 145.74L153.328 148.424L147.961 151.107C148.832 152.848 149.37 155.078 149.37 157.967H155.37ZM153.328 148.424L158.694 145.74C156.692 141.736 153.506 138.744 149.465 136.743L146.803 142.12L144.141 147.498C146.077 148.456 147.241 149.666 147.961 151.107L153.328 148.424ZM146.803 142.12L149.507 136.764C145.38 134.681 140.397 133.857 134.951 133.857V139.857V145.857C139.329 145.857 142.247 146.542 144.098 147.476L146.803 142.12ZM134.951 139.857V133.857H115.597V139.857V145.857H134.951V139.857ZM115.597 139.857H109.597V221H115.597H121.597V139.857H115.597ZM115.597 221V215H104.588V221V227H115.597V221ZM147.38 180.162L142.118 183.045L164.49 223.883L169.752 221L175.014 218.117L152.642 177.279L147.38 180.162ZM169.752 221V215H156.968V221V227H169.752V221ZM156.968 221L162.249 218.153L140.232 177.315L134.951 180.162L129.669 183.009L151.686 223.847L156.968 221ZM134.951 180.162V186.162H147.38V180.162V174.162H134.951V180.162ZM184.545 221H178.545V227H184.545V221ZM184.545 130.091V124.091H178.545V130.091H184.545ZM239.41 130.091H245.41V124.091H239.41V130.091ZM239.41 139.857V145.857H245.41V139.857H239.41ZM195.553 139.857V133.857H189.553V139.857H195.553ZM195.553 170.574H189.553V176.574H195.553V170.574ZM236.569 170.574H242.569V164.574H236.569V170.574ZM236.569 180.339V186.339H242.569V180.339H236.569ZM195.553 180.339V174.339H189.553V180.339H195.553ZM195.553 211.234H189.553V217.234H195.553V211.234ZM240.12 211.234H246.12V205.234H240.12V211.234ZM240.12 221V227H246.12V221H240.12ZM184.545 221H190.545V130.091H184.545H178.545V221H184.545ZM184.545 130.091V136.091H239.41V130.091V124.091H184.545V130.091ZM239.41 130.091H233.41V139.857H239.41H245.41V130.091H239.41ZM239.41 139.857V133.857H195.553V139.857V145.857H239.41V139.857ZM195.553 139.857H189.553V170.574H195.553H201.553V139.857H195.553ZM195.553 170.574V176.574H236.569V170.574V164.574H195.553V170.574ZM236.569 170.574H230.569V180.339H236.569H242.569V170.574H236.569ZM236.569 180.339V174.339H195.553V180.339V186.339H236.569V180.339ZM195.553 180.339H189.553V211.234H195.553H201.553V180.339H195.553ZM195.553 211.234V217.234H240.12V211.234V205.234H195.553V211.234ZM240.12 211.234H234.12V221H240.12H246.12V211.234H240.12ZM240.12 221V215H184.545V221V227H240.12V221ZM259.252 221H253.252V227H259.252V221ZM259.252 130.091V124.091H253.252V130.091H259.252ZM314.117 130.091H320.117V124.091H314.117V130.091ZM314.117 139.857V145.857H320.117V139.857H314.117ZM270.26 139.857V133.857H264.26V139.857H270.26ZM270.26 170.574H264.26V176.574H270.26V170.574ZM311.276 170.574H317.276V164.574H311.276V170.574ZM311.276 180.339V186.339H317.276V180.339H311.276ZM270.26 180.339V174.339H264.26V180.339H270.26ZM270.26 211.234H264.26V217.234H270.26V211.234ZM314.827 211.234H320.827V205.234H314.827V211.234ZM314.827 221V227H320.827V221H314.827ZM259.252 221H265.252V130.091H259.252H253.252V221H259.252ZM259.252 130.091V136.091H314.117V130.091V124.091H259.252V130.091ZM314.117 130.091H308.117V139.857H314.117H320.117V130.091H314.117ZM314.117 139.857V133.857H270.26V139.857V145.857H314.117V139.857ZM270.26 139.857H264.26V170.574H270.26H276.26V139.857H270.26ZM270.26 170.574V176.574H311.276V170.574V164.574H270.26V170.574ZM311.276 170.574H305.276V180.339H311.276H317.276V170.574H311.276ZM311.276 180.339V174.339H270.26V180.339V186.339H311.276V180.339ZM270.26 180.339H264.26V211.234H270.26H276.26V180.339H270.26ZM270.26 211.234V217.234H314.827V211.234V205.234H270.26V211.234ZM314.827 211.234H308.827V221H314.827H320.827V211.234H314.827ZM314.827 221V215H259.252V221V227H314.827V221ZM406.047 130.091H412.047V124.091H406.047V130.091ZM406.047 221V227H412.047V221H406.047ZM395.393 221L390.464 224.421L392.254 227H395.393V221ZM345.855 149.622L350.784 146.201L348.994 143.622H345.855V149.622ZM344.967 149.622V143.622H338.967V149.622H344.967ZM344.967 221V227H350.967V221H344.967ZM333.959 221H327.959V227H333.959V221ZM333.959 130.091V124.091H327.959V130.091H333.959ZM344.612 130.091L349.539 126.667L347.749 124.091H344.612V130.091ZM394.328 201.646L389.4 205.07L391.191 207.646H394.328V201.646ZM395.216 201.646V207.646H401.216V201.646H395.216ZM395.216 130.091V124.091H389.216V130.091H395.216ZM406.047 130.091H400.047V221H406.047H412.047V130.091H406.047ZM406.047 221V215H395.393V221V227H406.047V221ZM395.393 221L400.322 217.579L350.784 146.201L345.855 149.622L340.926 153.043L390.464 224.421L395.393 221ZM345.855 149.622V143.622H344.967V149.622V155.622H345.855V149.622ZM344.967 149.622H338.967V221H344.967H350.967V149.622H344.967ZM344.967 221V215H333.959V221V227H344.967V221ZM333.959 221H339.959V130.091H333.959H327.959V221H333.959ZM333.959 130.091V136.091H344.612V130.091V124.091H333.959V130.091ZM344.612 130.091L339.685 133.514L389.4 205.07L394.328 201.646L399.255 198.223L349.539 126.667L344.612 130.091ZM394.328 201.646V207.646H395.216V201.646V195.646H394.328V201.646ZM395.216 201.646H401.216V130.091H395.216H389.216V201.646H395.216ZM395.216 130.091V136.091H406.047V130.091V124.091H395.216V130.091ZM479.744 221L473.956 222.583L475.164 227H479.744V221ZM454.886 130.091V124.091H447.025L449.098 131.673L454.886 130.091ZM466.072 130.091L471.884 128.6L470.727 124.091H466.072V130.091ZM485.071 204.132L479.259 205.623L480.416 210.132H485.071V204.132ZM485.958 204.132V210.132H490.592L491.763 205.649L485.958 204.132ZM505.312 130.091V124.091H500.679L499.507 128.574L505.312 130.091ZM517.741 130.091L523.546 128.574L522.374 124.091H517.741V130.091ZM537.095 204.132L531.29 205.649L532.461 210.132H537.095V204.132ZM537.982 204.132V210.132H542.637L543.794 205.623L537.982 204.132ZM556.981 130.091V124.091H552.326L551.169 128.6L556.981 130.091ZM568.167 130.091L573.955 131.673L576.028 124.091H568.167V130.091ZM543.309 221V227H547.889L549.097 222.583L543.309 221ZM531.946 221L526.163 222.601L527.381 227H531.946V221ZM511.882 148.557L517.664 146.955L516.446 142.557H511.882V148.557ZM511.171 148.557V142.557H506.607L505.389 146.955L511.171 148.557ZM491.107 221V227H495.672L496.89 222.601L491.107 221ZM479.744 221L485.531 219.417L460.673 128.508L454.886 130.091L449.098 131.673L473.956 222.583L479.744 221ZM454.886 130.091V136.091H466.072V130.091V124.091H454.886V130.091ZM466.072 130.091L460.26 131.582L479.259 205.623L485.071 204.132L490.882 202.641L471.884 128.6L466.072 130.091ZM485.071 204.132V210.132H485.958V204.132V198.132H485.071V204.132ZM485.958 204.132L491.763 205.649L511.117 131.608L505.312 130.091L499.507 128.574L480.153 202.615L485.958 204.132ZM505.312 130.091V136.091H517.741V130.091V124.091H505.312V130.091ZM517.741 130.091L511.936 131.608L531.29 205.649L537.095 204.132L542.9 202.615L523.546 128.574L517.741 130.091ZM537.095 204.132V210.132H537.982V204.132V198.132H537.095V204.132ZM537.982 204.132L543.794 205.623L562.793 131.582L556.981 130.091L551.169 128.6L532.171 202.641L537.982 204.132ZM556.981 130.091V136.091H568.167V130.091V124.091H556.981V130.091ZM568.167 130.091L562.38 128.508L537.522 219.417L543.309 221L549.097 222.583L573.955 131.673L568.167 130.091ZM543.309 221V215H531.946V221V227H543.309V221ZM531.946 221L537.728 219.399L517.664 146.955L511.882 148.557L506.099 150.158L526.163 222.601L531.946 221ZM511.882 148.557V142.557H511.171V148.557V154.557H511.882V148.557ZM511.171 148.557L505.389 146.955L485.325 219.399L491.107 221L496.89 222.601L516.954 150.158L511.171 148.557ZM491.107 221V215H479.744V221V227H491.107V221ZM581.883 221H575.883V227H581.883V221ZM581.883 130.091V124.091H575.883V130.091H581.883ZM592.892 130.091H598.892V124.091H592.892V130.091ZM592.892 170.574H586.892V176.574H592.892V170.574ZM641.365 170.574V176.574H647.365V170.574H641.365ZM641.365 130.091V124.091H635.365V130.091H641.365ZM652.373 130.091H658.373V124.091H652.373V130.091ZM652.373 221V227H658.373V221H652.373ZM641.365 221H635.365V227H641.365V221ZM641.365 180.339H647.365V174.339H641.365V180.339ZM592.892 180.339V174.339H586.892V180.339H592.892ZM592.892 221V227H598.892V221H592.892ZM581.883 221H587.883V130.091H581.883H575.883V221H581.883ZM581.883 130.091V136.091H592.892V130.091V124.091H581.883V130.091ZM592.892 130.091H586.892V170.574H592.892H598.892V130.091H592.892ZM592.892 170.574V176.574H641.365V170.574V164.574H592.892V170.574ZM641.365 170.574H647.365V130.091H641.365H635.365V170.574H641.365ZM641.365 130.091V136.091H652.373V130.091V124.091H641.365V130.091ZM652.373 130.091H646.373V221H652.373H658.373V130.091H652.373ZM652.373 221V215H641.365V221V227H652.373V221ZM641.365 221H647.365V180.339H641.365H635.365V221H641.365ZM641.365 180.339V174.339H592.892V180.339V186.339H641.365V180.339ZM592.892 180.339H586.892V221H592.892H598.892V180.339H592.892ZM592.892 221V215H581.883V221V227H592.892V221ZM674.413 221H668.413V227H674.413V221ZM674.413 130.091V124.091H668.413V130.091H674.413ZM729.278 130.091H735.278V124.091H729.278V130.091ZM729.278 139.857V145.857H735.278V139.857H729.278ZM685.421 139.857V133.857H679.421V139.857H685.421ZM685.421 170.574H679.421V176.574H685.421V170.574ZM726.437 170.574H732.437V164.574H726.437V170.574ZM726.437 180.339V186.339H732.437V180.339H726.437ZM685.421 180.339V174.339H679.421V180.339H685.421ZM685.421 211.234H679.421V217.234H685.421V211.234ZM729.988 211.234H735.988V205.234H729.988V211.234ZM729.988 221V227H735.988V221H729.988ZM674.413 221H680.413V130.091H674.413H668.413V221H674.413ZM674.413 130.091V136.091H729.278V130.091V124.091H674.413V130.091ZM729.278 130.091H723.278V139.857H729.278H735.278V130.091H729.278ZM729.278 139.857V133.857H685.421V139.857V145.857H729.278V139.857ZM685.421 139.857H679.421V170.574H685.421H691.421V139.857H685.421ZM685.421 170.574V176.574H726.437V170.574V164.574H685.421V170.574ZM726.437 170.574H720.437V180.339H726.437H732.437V170.574H726.437ZM726.437 180.339V174.339H685.421V180.339V186.339H726.437V180.339ZM685.421 180.339H679.421V211.234H685.421H691.421V180.339H685.421ZM685.421 211.234V217.234H729.988V211.234V205.234H685.421V211.234ZM729.988 211.234H723.988V221H729.988H735.988V211.234H729.988ZM729.988 221V215H674.413V221V227H729.988V221ZM749.12 221H743.12V227H749.12V221ZM749.12 130.091V124.091H743.12V130.091H749.12ZM803.985 130.091H809.985V124.091H803.985V130.091ZM803.985 139.857V145.857H809.985V139.857H803.985ZM760.128 139.857V133.857H754.128V139.857H760.128ZM760.128 170.574H754.128V176.574H760.128V170.574ZM801.144 170.574H807.144V164.574H801.144V170.574ZM801.144 180.339V186.339H807.144V180.339H801.144ZM760.128 180.339V174.339H754.128V180.339H760.128ZM760.128 211.234H754.128V217.234H760.128V211.234ZM804.695 211.234H810.695V205.234H804.695V211.234ZM804.695 221V227H810.695V221H804.695ZM749.12 221H755.12V130.091H749.12H743.12V221H749.12ZM749.12 130.091V136.091H803.985V130.091V124.091H749.12V130.091ZM803.985 130.091H797.985V139.857H803.985H809.985V130.091H803.985ZM803.985 139.857V133.857H760.128V139.857V145.857H803.985V139.857ZM760.128 139.857H754.128V170.574H760.128H766.128V139.857H760.128ZM760.128 170.574V176.574H801.144V170.574V164.574H760.128V170.574ZM801.144 170.574H795.144V180.339H801.144H807.144V170.574H801.144ZM801.144 180.339V174.339H760.128V180.339V186.339H801.144V180.339ZM760.128 180.339H754.128V211.234H760.128H766.128V180.339H760.128ZM760.128 211.234V217.234H804.695V211.234V205.234H760.128V211.234ZM804.695 211.234H798.695V221H804.695H810.695V211.234H804.695ZM804.695 221V215H749.12V221V227H804.695V221ZM823.827 221H817.827V227H823.827V221ZM823.827 130.091V124.091H817.827V130.091H823.827ZM834.835 130.091H840.835V124.091H834.835V130.091ZM834.835 211.234H828.835V217.234H834.835V211.234ZM877.094 211.234H883.094V205.234H877.094V211.234ZM877.094 221V227H883.094V221H877.094ZM823.827 221H829.827V130.091H823.827H817.827V221H823.827ZM823.827 130.091V136.091H834.835V130.091V124.091H823.827V130.091ZM834.835 130.091H828.835V211.234H834.835H840.835V130.091H834.835ZM834.835 211.234V217.234H877.094V211.234V205.234H834.835V211.234ZM877.094 211.234H871.094V221H877.094H883.094V211.234H877.094ZM877.094 221V215H823.827V221V227H877.094V221ZM943.855 152.818L937.897 153.524L938.524 158.818H943.855V152.818ZM937.374 142.342L934.082 147.359V147.359L937.374 142.342ZM912.872 140.567L910.495 135.057L910.485 135.062L910.475 135.066L912.872 140.567ZM905.858 145.938L901.036 142.368L901.021 142.388L901.006 142.409L905.858 145.938ZM905.103 159.965L900.098 163.273L900.131 163.323L900.164 163.371L905.103 159.965ZM909.631 164.271L906.436 169.349L906.466 169.368L906.496 169.386L909.631 164.271ZM915.402 167.067L913.331 172.699L913.368 172.712L913.405 172.725L915.402 167.067ZM920.95 168.798L922.51 163.005L922.494 163L922.477 162.996L920.95 168.798ZM930.183 171.284L928.623 177.078L928.642 177.083L928.66 177.087L930.183 171.284ZM938.085 173.859L935.965 179.472L935.975 179.475L935.984 179.479L938.085 173.859ZM946.474 178.342L942.997 183.232L943.028 183.254L943.059 183.275L946.474 178.342ZM953.133 185.533L958.287 182.461V182.461L953.133 185.533ZM951.89 209.636L946.857 206.369L946.849 206.382L946.84 206.396L951.89 209.636ZM940.704 219.091L938.125 213.673L938.112 213.68L940.704 219.091ZM905.991 219.446L903.557 224.931L903.57 224.936L905.991 219.446ZM894.805 210.657L889.928 214.152L889.937 214.165L889.946 214.177L894.805 210.657ZM890.233 197.562V191.562H883.789L884.248 197.99L890.233 197.562ZM901.597 197.562L907.574 197.047L907.102 191.562H901.597V197.562ZM905.059 206.085L900.588 210.086L900.615 210.117L900.643 210.148L905.059 206.085ZM912.783 211.057L910.789 216.716L910.821 216.727L910.853 216.738L912.783 211.057ZM934.223 210.613L936.485 216.17L936.506 216.162L936.527 216.153L934.223 210.613ZM942.168 204.842L946.865 208.577L946.875 208.563L946.886 208.549L942.168 204.842ZM942.568 188.773L947.048 184.783V184.783L942.568 188.773ZM935.909 184.157L933.539 189.669V189.669L935.909 184.157ZM926.987 181.05L925.339 186.819L925.36 186.825L925.381 186.831L926.987 181.05ZM915.801 177.854L914.143 183.62L914.153 183.623L915.801 177.854ZM898.933 169.109L894.885 173.537V173.537L898.933 169.109ZM896.847 140.922L891.998 137.388L891.993 137.395L896.847 140.922ZM908.033 132.044L910.492 137.517L910.5 137.513L910.508 137.51L908.033 132.044ZM939.416 132L936.904 137.448L936.919 137.455L936.933 137.462L939.416 132ZM950.247 140.522L945.419 144.084L945.428 144.097L945.438 144.11L950.247 140.522ZM954.509 152.818V158.818H960.705L960.505 152.625L954.509 152.818ZM943.855 152.818L949.814 152.113C949.072 145.854 945.936 140.784 940.666 137.326L937.374 142.342L934.082 147.359C936.389 148.872 937.573 150.786 937.897 153.524L943.855 152.818ZM937.374 142.342L940.666 137.326C935.708 134.072 929.856 132.614 923.436 132.614V138.614V144.614C928.024 144.614 931.465 145.641 934.082 147.359L937.374 142.342ZM923.436 138.614V132.614C918.773 132.614 914.412 133.368 910.495 135.057L912.872 140.567L915.248 146.076C917.368 145.162 920.05 144.614 923.436 144.614V138.614ZM912.872 140.567L910.475 135.066C906.669 136.724 903.437 139.124 901.036 142.368L905.858 145.938L910.68 149.508C911.653 148.194 913.096 147.013 915.268 146.067L912.872 140.567ZM905.858 145.938L901.006 142.409C898.58 145.745 897.372 149.578 897.372 153.706H903.372H909.372C909.372 152.034 909.822 150.688 910.71 149.467L905.858 145.938ZM903.372 153.706H897.372C897.372 157.117 898.197 160.397 900.098 163.273L905.103 159.965L910.109 156.656C909.702 156.041 909.372 155.148 909.372 153.706H903.372ZM905.103 159.965L900.164 163.371C901.828 165.784 903.941 167.779 906.436 169.349L909.631 164.271L912.826 159.192C911.652 158.454 910.746 157.578 910.043 156.558L905.103 159.965ZM909.631 164.271L906.496 169.386C908.666 170.717 910.946 171.822 913.331 172.699L915.402 167.067L917.472 161.436C915.832 160.833 914.265 160.074 912.766 159.155L909.631 164.271ZM915.402 167.067L913.405 172.725C915.539 173.478 917.548 174.107 919.423 174.601L920.95 168.798L922.477 162.996C920.979 162.602 919.289 162.076 917.399 161.409L915.402 167.067ZM920.95 168.798L919.391 174.592L928.623 177.078L930.183 171.284L931.743 165.49L922.51 163.005L920.95 168.798ZM930.183 171.284L928.66 177.087C930.781 177.644 933.212 178.432 935.965 179.472L938.085 173.859L940.204 168.245C937.157 167.095 934.321 166.167 931.707 165.481L930.183 171.284ZM938.085 173.859L935.984 179.479C938.404 180.383 940.74 181.627 942.997 183.232L946.474 178.342L949.951 173.452C946.882 171.27 943.625 169.524 940.185 168.238L938.085 173.859ZM946.474 178.342L943.059 183.275C945.016 184.63 946.654 186.382 947.978 188.605L953.133 185.533L958.287 182.461C956.12 178.825 953.318 175.782 949.889 173.409L946.474 178.342ZM953.133 185.533L947.978 188.605C949.048 190.4 949.751 192.872 949.751 196.32H955.751H961.751C961.751 191.244 960.709 186.526 958.287 182.461L953.133 185.533ZM955.751 196.32H949.751C949.751 200.12 948.775 203.416 946.857 206.369L951.89 209.636L956.922 212.904C960.154 207.926 961.751 202.344 961.751 196.32H955.751ZM951.89 209.636L946.84 206.396C944.988 209.281 942.186 211.741 938.125 213.674L940.704 219.091L943.282 224.509C949.046 221.766 953.701 217.923 956.939 212.877L951.89 209.636ZM940.704 219.091L938.112 213.68C934.238 215.535 929.241 216.598 922.903 216.598V222.598V228.598C930.533 228.598 937.404 227.323 943.295 224.503L940.704 219.091ZM922.903 222.598V216.598C917.025 216.598 912.248 215.648 908.412 213.956L905.991 219.446L903.57 224.936C909.263 227.447 915.762 228.598 922.903 228.598V222.598ZM905.991 219.446L908.425 213.962C904.542 212.239 901.696 209.942 899.664 207.137L894.805 210.657L889.946 214.177C893.36 218.889 897.97 222.451 903.558 224.931L905.991 219.446ZM894.805 210.657L899.682 207.163C897.685 204.375 896.5 201.091 896.218 197.135L890.233 197.562L884.248 197.99C884.676 203.977 886.539 209.423 889.928 214.152L894.805 210.657ZM890.233 197.562V203.562H901.597V197.562V191.562H890.233V197.562ZM901.597 197.562L895.619 198.078C896.01 202.613 897.589 206.735 900.588 210.086L905.059 206.085L909.53 202.084C908.504 200.938 907.775 199.377 907.574 197.047L901.597 197.562ZM905.059 206.085L900.643 210.148C903.41 213.155 906.843 215.325 910.789 216.716L912.783 211.057L914.777 205.398C912.508 204.598 910.792 203.455 909.475 202.023L905.059 206.085ZM912.783 211.057L910.853 216.738C914.665 218.033 918.696 218.655 922.903 218.655V212.655V206.655C919.891 206.655 917.174 206.212 914.712 205.376L912.783 211.057ZM922.903 212.655V218.655C927.756 218.655 932.315 217.868 936.485 216.17L934.223 210.613L931.961 205.056C929.443 206.081 926.455 206.655 922.903 206.655V212.655ZM934.223 210.613L936.527 216.153C940.662 214.433 944.188 211.942 946.865 208.577L942.168 204.842L937.472 201.108C936.242 202.655 934.471 204.011 931.919 205.073L934.223 210.613ZM942.168 204.842L946.886 208.549C949.712 204.953 951.098 200.731 951.098 196.142H945.098H939.098C939.098 198.182 938.531 199.76 937.451 201.135L942.168 204.842ZM945.098 196.142H951.098C951.098 191.947 949.894 187.978 947.048 184.783L942.568 188.773L938.087 192.764C938.615 193.357 939.098 194.3 939.098 196.142H945.098ZM942.568 188.773L947.048 184.783C944.682 182.125 941.694 180.113 938.28 178.645L935.909 184.157L933.539 189.669C935.63 190.568 937.081 191.634 938.087 192.764L942.568 188.773ZM935.909 184.157L938.28 178.645C935.255 177.344 932.023 176.221 928.593 175.269L926.987 181.05L925.381 186.831C928.344 187.654 931.06 188.603 933.539 189.669L935.909 184.157ZM926.987 181.05L928.636 175.281L917.45 172.085L915.801 177.854L914.153 183.623L925.339 186.819L926.987 181.05ZM915.801 177.854L917.459 172.087C910.976 170.223 906.261 167.679 902.982 164.681L898.933 169.109L894.885 173.537C899.892 178.115 906.422 181.4 914.143 183.62L915.801 177.854ZM898.933 169.109L902.982 164.681C900.203 162.141 898.719 158.851 898.719 154.239H892.719H886.719C886.719 161.877 889.377 168.502 894.885 173.537L898.933 169.109ZM892.719 154.239H898.719C898.719 150.299 899.759 147.121 901.701 144.449L896.847 140.922L891.993 137.395C888.43 142.298 886.719 147.998 886.719 154.239H892.719ZM896.847 140.922L901.696 144.455C903.812 141.552 906.685 139.228 910.492 137.517L908.033 132.044L905.574 126.571C900.03 129.062 895.446 132.657 891.998 137.388L896.847 140.922ZM908.033 132.044L910.508 137.51C914.345 135.772 918.739 134.848 923.791 134.848V128.848V122.848C917.243 122.848 911.131 124.055 905.558 126.578L908.033 132.044ZM923.791 128.848V134.848C928.928 134.848 933.256 135.766 936.904 137.448L939.416 132L941.928 126.551C936.462 124.031 930.374 122.848 923.791 122.848V128.848ZM939.416 132L936.933 137.462C940.67 139.16 943.431 141.389 945.419 144.084L950.247 140.522L955.076 136.96C951.737 132.435 947.277 128.982 941.899 126.537L939.416 132ZM950.247 140.522L945.438 144.11C947.383 146.717 948.402 149.626 948.512 153.012L954.509 152.818L960.505 152.625C960.319 146.837 958.498 141.548 955.057 136.935L950.247 140.522ZM954.509 152.818V146.818H943.855V152.818V158.818H954.509V152.818Z" fill="#8BB000" mask="url(#path-3-outside-2_2003_6)"/>
</svg>
