<svg width="973" height="749" viewBox="0 0 973 749" fill="none" xmlns="http://www.w3.org/2000/svg">
<path d="M29.3139 614H22.0199L43.1165 556.545H50.2983L71.3949 614H64.1009L46.9318 565.635H46.483L29.3139 614ZM32.0071 591.557H61.4077V597.729H32.0071V591.557Z" fill="#5E1414"/>
<path d="M124.782 614V556.545H131.739V607.828H158.446V614H124.782Z" fill="#5E1414"/>
<path d="M220.614 556.545V614H213.657V556.545H220.614Z" fill="#5E1414"/>
<path d="M338.812 614.786C335.034 614.786 331.78 614.094 329.05 612.71C326.319 611.326 324.215 609.427 322.737 607.015C321.26 604.602 320.521 601.843 320.521 598.739C320.521 596.345 321.026 594.222 322.036 592.37C323.065 590.5 324.477 588.77 326.272 587.18C328.086 585.572 330.172 583.964 332.528 582.355L340.832 576.183C342.459 575.117 343.759 573.976 344.732 572.761C345.723 571.545 346.219 569.955 346.219 567.991C346.219 566.533 345.573 565.121 344.283 563.755C343.011 562.39 341.337 561.707 339.261 561.707C337.802 561.707 336.512 562.081 335.39 562.83C334.286 563.559 333.417 564.494 332.781 565.635C332.164 566.757 331.855 567.917 331.855 569.114C331.855 570.46 332.22 571.826 332.949 573.21C333.697 574.575 334.642 575.977 335.783 577.418C336.942 578.839 338.139 580.298 339.374 581.794L365.744 614H357.777L336.007 587.741C333.987 585.31 332.154 583.103 330.508 581.121C328.863 579.138 327.553 577.184 326.581 575.257C325.608 573.331 325.122 571.246 325.122 569.001C325.122 566.42 325.693 564.157 326.833 562.212C327.993 560.249 329.611 558.724 331.687 557.64C333.781 556.536 336.231 555.984 339.037 555.984C341.917 555.984 344.395 556.545 346.471 557.668C348.547 558.771 350.146 560.239 351.268 562.072C352.391 563.886 352.952 565.859 352.952 567.991C352.952 570.741 352.269 573.125 350.904 575.145C349.538 577.165 347.677 579.045 345.321 580.784L333.875 589.312C331.294 591.22 329.545 593.072 328.629 594.867C327.712 596.663 327.254 597.953 327.254 598.739C327.254 600.534 327.722 602.208 328.657 603.76C329.592 605.313 330.911 606.566 332.612 607.52C334.314 608.473 336.306 608.95 338.588 608.95C340.757 608.95 342.871 608.492 344.928 607.576C346.985 606.64 348.846 605.294 350.511 603.536C352.194 601.778 353.522 599.664 354.495 597.196C355.486 594.727 355.981 591.95 355.981 588.864H362.378C362.378 592.679 361.938 595.793 361.059 598.206C360.18 600.618 359.189 602.507 358.086 603.872C356.982 605.238 356.094 606.257 355.42 606.93C355.196 607.211 354.99 607.491 354.803 607.772C354.616 608.053 354.41 608.333 354.186 608.614C352.334 610.69 349.997 612.242 347.172 613.271C344.348 614.281 341.562 614.786 338.812 614.786Z" fill="#5E1414"/>
<path d="M462.846 614V556.545H469.803V585.048H470.477L496.286 556.545H505.376L481.249 582.467L505.376 614H496.96L476.985 587.293L469.803 595.372V614H462.846Z" fill="#5E1414"/>
<path d="M558.819 614V556.545H565.776V582.131H596.411V556.545H603.368V614H596.411V588.303H565.776V614H558.819Z" fill="#5E1414"/>
<path d="M664.091 614H656.797L677.894 556.545H685.076L706.172 614H698.878L681.709 565.635H681.26L664.091 614ZM666.784 591.557H696.185V597.729H666.784V591.557Z" fill="#5E1414"/>
<path d="M805.119 556.545V614H798.386L767.077 568.889H766.516V614H759.559V556.545H766.292L797.712 601.768H798.273V556.545H805.119Z" fill="#5E1414"/>
<path d="M868.415 556.545V561.595C868.415 563.129 868.135 564.765 867.574 566.505C867.031 568.225 866.227 569.899 865.161 571.526C864.114 573.135 862.842 574.537 861.346 575.734L857.755 572.817C858.933 571.134 859.952 569.385 860.813 567.571C861.692 565.738 862.131 563.783 862.131 561.707V556.545H868.415Z" fill="#5E1414"/>
<path d="M953.917 570.909C953.58 568.066 952.215 565.859 949.821 564.288C947.427 562.717 944.491 561.932 941.012 561.932C938.469 561.932 936.243 562.343 934.335 563.166C932.446 563.989 930.969 565.121 929.903 566.561C928.855 568.001 928.332 569.637 928.332 571.47C928.332 573.004 928.696 574.322 929.426 575.426C930.174 576.511 931.128 577.418 932.287 578.147C933.447 578.858 934.663 579.447 935.934 579.914C937.206 580.363 938.375 580.728 939.441 581.009L945.276 582.58C946.773 582.972 948.437 583.515 950.27 584.207C952.121 584.899 953.889 585.843 955.572 587.04C957.274 588.218 958.677 589.733 959.78 591.585C960.884 593.436 961.435 595.709 961.435 598.402C961.435 601.507 960.622 604.312 958.995 606.818C957.386 609.324 955.03 611.316 951.925 612.794C948.839 614.271 945.089 615.01 940.675 615.01C936.561 615.01 932.998 614.346 929.987 613.018C926.994 611.69 924.638 609.839 922.917 607.463C921.215 605.088 920.252 602.33 920.028 599.188H927.21C927.397 601.357 928.126 603.152 929.398 604.574C930.688 605.977 932.315 607.024 934.279 607.716C936.262 608.389 938.394 608.726 940.675 608.726C943.331 608.726 945.716 608.296 947.829 607.435C949.943 606.556 951.616 605.341 952.851 603.788C954.085 602.217 954.702 600.384 954.702 598.29C954.702 596.382 954.169 594.83 953.103 593.633C952.037 592.436 950.635 591.463 948.895 590.715C947.156 589.967 945.276 589.312 943.256 588.751L936.187 586.732C931.698 585.441 928.145 583.599 925.526 581.205C922.908 578.811 921.599 575.678 921.599 571.807C921.599 568.59 922.468 565.785 924.208 563.391C925.966 560.978 928.322 559.108 931.277 557.78C934.251 556.433 937.571 555.76 941.237 555.76C944.94 555.76 948.231 556.424 951.112 557.752C953.992 559.061 956.273 560.856 957.957 563.138C959.659 565.42 960.556 568.01 960.65 570.909H953.917Z" fill="#5E1414"/>
<path d="M85.5682 685C84.5994 682.035 83.3224 679.378 81.7372 677.03C80.1813 674.652 78.3172 672.626 76.1449 670.953C74.0019 669.28 71.5653 668.003 68.8352 667.122C66.1051 666.241 63.1108 665.801 59.8523 665.801C54.5095 665.801 49.651 667.181 45.277 669.94C40.9029 672.7 37.4242 676.766 34.8409 682.138C32.2576 687.51 30.9659 694.1 30.9659 701.909C30.9659 709.718 32.2723 716.308 34.8849 721.68C37.4976 727.053 41.035 731.118 45.4972 733.878C49.9593 736.637 54.9792 738.017 60.5568 738.017C65.7235 738.017 70.2737 736.916 74.2074 734.714C78.1705 732.483 81.2528 729.342 83.4545 725.291C85.6856 721.211 86.8011 716.411 86.8011 710.892L90.1477 711.597H63.0227V701.909H97.3693V711.597C97.3693 719.024 95.7841 725.482 92.6136 730.972C89.4725 736.461 85.1278 740.718 79.5795 743.741C74.0606 746.736 67.7197 748.233 60.5568 748.233C52.572 748.233 45.5559 746.354 39.5085 742.597C33.4905 738.839 28.7936 733.496 25.4176 726.568C22.071 719.64 20.3977 711.42 20.3977 701.909C20.3977 694.776 21.3518 688.361 23.2599 682.666C25.1974 676.942 27.9276 672.069 31.4503 668.047C34.973 664.025 39.1416 660.943 43.956 658.8C48.7704 656.657 54.0691 655.585 59.8523 655.585C64.608 655.585 69.0407 656.304 73.1506 657.743C77.2898 659.152 80.974 661.163 84.2031 663.776C87.4616 666.359 90.1771 669.456 92.3494 673.067C94.5218 676.648 96.0189 680.626 96.8409 685H85.5682Z" fill="#8BB000"/>
<path d="M116.073 747V656.818H146.544C153.59 656.818 159.373 658.022 163.894 660.429C168.415 662.807 171.761 666.08 173.934 670.249C176.106 674.417 177.192 679.158 177.192 684.472C177.192 689.785 176.106 694.497 173.934 698.607C171.761 702.716 168.429 705.946 163.938 708.294C159.446 710.613 153.707 711.773 146.721 711.773H122.061V701.909H146.368C151.183 701.909 155.058 701.205 157.993 699.795C160.958 698.386 163.101 696.39 164.422 693.807C165.773 691.194 166.448 688.082 166.448 684.472C166.448 680.861 165.773 677.705 164.422 675.004C163.072 672.304 160.914 670.219 157.949 668.751C154.984 667.254 151.065 666.506 146.192 666.506H126.993V747H116.073ZM158.522 706.489L180.715 747H168.033L146.192 706.489H158.522Z" fill="#8BB000"/>
<path d="M195.389 747V656.818H249.815V666.506H206.31V696.977H246.997V706.665H206.31V737.312H250.52V747H195.389Z" fill="#8BB000"/>
<path d="M269.499 747V656.818H323.925V666.506H280.419V696.977H321.107V706.665H280.419V737.312H324.629V747H269.499Z" fill="#8BB000"/>
<path d="M415.119 656.818V747H404.551L355.409 676.193H354.528V747H343.608V656.818H354.176L403.494 727.801H404.375V656.818H415.119Z" fill="#8BB000"/>
<path d="M488.227 747L463.568 656.818H474.664L493.511 730.267H494.392L513.591 656.818H525.92L545.119 730.267H546L564.846 656.818H575.943L551.284 747H540.011L520.108 675.136H519.403L499.5 747H488.227Z" fill="#8BB000"/>
<path d="M589.549 747V656.818H600.47V696.977H648.555V656.818H659.476V747H648.555V706.665H600.47V747H589.549Z" fill="#8BB000"/>
<path d="M681.338 747V656.818H735.765V666.506H692.259V696.977H732.946V706.665H692.259V737.312H736.469V747H681.338Z" fill="#8BB000"/>
<path d="M755.448 747V656.818H809.874V666.506H766.368V696.977H807.056V706.665H766.368V737.312H810.578V747H755.448Z" fill="#8BB000"/>
<path d="M829.557 747V656.818H840.478V737.312H882.398V747H829.557Z" fill="#8BB000"/>
<path d="M948.625 679.364C948.097 674.902 945.954 671.438 942.196 668.972C938.439 666.506 933.83 665.273 928.37 665.273C924.377 665.273 920.884 665.919 917.89 667.21C914.925 668.502 912.605 670.278 910.932 672.538C909.288 674.799 908.466 677.367 908.466 680.244C908.466 682.652 909.039 684.721 910.184 686.453C911.358 688.156 912.855 689.58 914.675 690.724C916.495 691.84 918.403 692.765 920.399 693.499C922.396 694.203 924.23 694.776 925.904 695.216L935.063 697.682C937.411 698.298 940.024 699.15 942.901 700.236C945.807 701.322 948.581 702.804 951.223 704.683C953.895 706.533 956.096 708.911 957.828 711.817C959.56 714.723 960.427 718.29 960.427 722.517C960.427 727.39 959.149 731.794 956.596 735.727C954.071 739.661 950.372 742.787 945.499 745.107C940.655 747.426 934.769 748.585 927.841 748.585C921.383 748.585 915.791 747.543 911.064 745.459C906.367 743.375 902.668 740.468 899.968 736.74C897.296 733.012 895.784 728.682 895.432 723.75H906.705C906.998 727.155 908.143 729.973 910.14 732.205C912.165 734.406 914.719 736.05 917.802 737.136C920.913 738.193 924.26 738.722 927.841 738.722C932.01 738.722 935.753 738.046 939.07 736.696C942.387 735.316 945.015 733.408 946.952 730.972C948.89 728.506 949.858 725.629 949.858 722.341C949.858 719.347 949.022 716.91 947.348 715.031C945.675 713.152 943.473 711.626 940.743 710.452C938.013 709.277 935.063 708.25 931.892 707.369L920.796 704.199C913.75 702.173 908.173 699.282 904.063 695.524C899.953 691.767 897.898 686.849 897.898 680.773C897.898 675.723 899.263 671.32 901.993 667.562C904.753 663.776 908.452 660.84 913.09 658.756C917.757 656.642 922.968 655.585 928.722 655.585C934.534 655.585 939.701 656.627 944.222 658.712C948.743 660.767 952.324 663.585 954.966 667.166C957.638 670.748 959.047 674.813 959.194 679.364H948.625Z" fill="#8BB000"/>
<path d="M769.051 235.5L812.025 241.768V262.5C812.025 262.5 777.546 262.5 773.002 258.643C768.459 254.786 769.051 235.5 769.051 235.5Z" fill="#251E1E"/>
<path d="M731.5 210L768.5 230.5L771.5 258L812 262L811 240L821.5 241V275L772.226 273.492L759.151 263.916L731.5 210Z" fill="#F8F7F8"/>
<path d="M694.5 142.5L675.5 136.5L694.5 134L744 142.5L825.5 234L773 226L694.5 142.5Z" fill="#74950A"/>
<path d="M642.5 38.5L716.5 48L767.5 124.5L702 121L642.5 38.5Z" fill="#74950A"/>
<path d="M515 0L589 9.5L601.5 45.5L596 51L583.5 54.5L535 44.5L515 0Z" fill="#74950A"/>
<path d="M594.5 51.5L601.5 45.5L627.5 68V81H639L644.5 90L653 104L632 101L625 100.5L608 81.5H619.5V71L594.5 51.5Z" fill="#74950A"/>
<path d="M540 89H591L587.5 93L591 99H548C541.898 99.678 538.604 107.305 536 101C533.396 94.6947 534.691 92.0703 540 89Z" fill="#799D13"/>
<path d="M567 99.5L589.5 98H615V104H567V99.5Z" fill="#27231A"/>
<path d="M564.5 100.857L573 100V106H563L564.5 100.857Z" fill="#27231A"/>
<path d="M615 148L657 138.5L766 297.5L687 293L661.5 288.5L615 148Z" fill="#74950A"/>
<path d="M749 274L793.5 284L821.5 286L825 281.5L830.5 298L766 297.5L749 274Z" fill="#74950A"/>
<path d="M661 287.5L723 294.5L630.5 466L599.5 419.5L661 287.5Z" fill="#74950A"/>
<path d="M633.78 452.5L671.651 459.5L681.75 464.5L630.75 465.5L633.78 452.5Z" fill="#74950A"/>
<path d="M438 390.577L439 389L601.653 422.655L626.017 448.923L630.5 465.5L629 469L464 431.051L438 390.577Z" fill="#2B3509"/>
<path d="M505 312L574 313L546 372H476L505 312Z" fill="#74950A"/>
<path d="M291 306.5L328.5 267L321.223 276L295 259.5L262 239.5L257 226L317 239.5L336.5 259.5L410.5 289.5L431.5 337L450.5 373L417 377.5L291 306.5Z" fill="#2B3509"/>
<path d="M275 129.068L361.5 142.068L368.5 148.568L373 191.068L358.5 201.568L336 196.568H355L365 189.068L361.5 153.568L359.5 150.068L326 144.568L289 140.068L293.5 169.068L295.5 183.568L310.5 192.068L320.5 195.068L293.5 196.568C289.37 196.465 286.732 195.949 281 193.568C278.23 192.75 276.847 191.616 275 187.068C272.099 169.287 272.639 181.644 267 135.568C269.391 130.169 271.115 128.638 275 129.068Z" fill="#2B3509"/>
<path d="M326 202H342V214L326 215L318 223L315.5 216.5V208L314.5 197.5L317.5 195.5L326 202Z" fill="#74950A"/>
<path d="M337 213.5L375.5 211.5C392.091 209.687 401.303 209.504 417.5 211.5C447.966 216.222 463.819 220.155 492.5 226.5L518 228C527.542 228.603 532.225 229.617 540 232C548.272 236.042 552.116 240.067 557.5 250.5L569 273.5L500.5 272C500.5 272 485.5 246.5 487 244.5C488.5 242.5 396.778 228.655 337 213.5Z" fill="#251E1E"/>
<path d="M504 275L570 276C579.491 284.596 580.445 295.661 575.5 297.5C570.555 299.339 514.5 294.5 514.5 294.5L504 275Z" fill="#251E1E"/>
<path d="M358.5 400L330 356.5L332.5 349.5L409 448L501.5 465L394.5 452L358.5 400Z" fill="#370504"/>
<path d="M300 429.5L306 428.5L376 451L284 445.5L300 429.5Z" fill="#2B3509"/>
<path d="M234 408.5L248.5 386.5L264.5 372L278.5 366.5L290 363L275.5 376L258 397.5L248.5 415.5L245 443L253 474L278.5 497.5L307 504L327 495.5L344.5 482H363L356 497.5L330.5 517L303.5 523L264.5 517L245 497.5L230.5 482L225 459.5V439.5L234 408.5Z" fill="#2B3509"/>
<path d="M764.5 335.5C778.356 333.319 812.699 337.857 832 340C848.46 346.034 856.001 349.945 866 358L885 375L845 382.5L800.5 372L797.5 379L806.5 418V439.5H800.5L771.5 370.5C765.393 357.414 762.24 349.091 764.5 335.5Z" fill="#2B3509"/>
<path d="M771.5 335.578C785.356 333.397 819.699 337.935 839 340.078C855.46 346.112 863.001 350.023 873 358.078L892 375.078L850.5 379.578L807.5 372.078L804.5 379.078L813.5 418.078L818 434.078L806 441.078L778.5 370.578C772.393 357.492 769.24 349.169 771.5 335.578Z" fill="#74950A"/>
<path d="M718 456L720 429L728 408.5L742 400.5L735.5 403.5L732 438.5L735.5 465L748 494L764.5 509L776.5 520.5L805 525L788 530L776.5 527.5L759 520.5L742 509L726 485L718 456Z" fill="#2B3509"/>
<path d="M723 453.078L725 426.078L733 405.578L744 390.578L740.5 400.578L737 435.578L740.5 462.078L753 491.078L769.5 506.078L781.5 517.578L811.5 524.578L793 527.078L781.5 524.578L764 517.578L747 506.078L731 482.078L723 453.078Z" fill="#74950A"/>
<path d="M840 413.5L837.5 402L853.5 416L858.5 413.5L867 440.5V469.5L858.5 486.5L835 511L818.5 518.5L803.5 515L792.5 511L826.5 502.5L837.5 492L850 469.5L853.5 440.5L840 413.5Z" fill="#262E08"/>
<path d="M837 401.078L851 406.578L860.5 416.078L865.5 413.578L874 440.578V469.578L865.5 486.578L842 511.078L824 515.078H810.5L799.5 511.078L833.5 502.578L844.5 492.078L857 469.578L860.5 440.578L837 401.078Z" fill="#74950A"/>
<path d="M812.49 492.835L820.098 486.67L811.53 493.613L812.49 498.347L793.662 505.5L770.182 497.722L759.252 487.84L745.442 463.755V452.5L748.5 442L759.252 427L753.109 457.543L758.867 468.677L773.117 482.851L793.662 490.087L812.49 492.835Z" fill="#370504"/>
<path d="M833.526 475.292L827.098 486.748L818.53 493.691L819.49 498.425L798.331 501.975L777.182 497.801L766.252 487.918L752.442 463.833L752.633 447.511L754.964 435.701L759.78 426.654L760.109 457.621L765.867 468.755L780.118 482.929L800.662 490.165L833.526 475.292Z" fill="#571413"/>
<path d="M805 458.5C805 463.194 807.971 467 803 467C798.029 467 791.5 466.194 791.5 461.5C791.5 456.806 795.529 450.5 800.5 450.5C805.47 450.5 805 453.806 805 458.5Z" fill="#2B3509"/>
<path d="M812 458.578C812 463.273 807.971 467.078 803 467.078C798.029 467.078 794 463.273 794 458.578C794 453.884 798.029 450.078 803 450.078C807.971 450.078 812 453.884 812 458.578Z" fill="#74950A"/>
<path d="M134 289H264L253 311H112L134 289Z" fill="#571413"/>
<path d="M134 289H264L253 311H112L134 289Z" fill="#571413"/>
<path d="M34.8816 341H241L223.559 363H0L34.8816 341Z" fill="#571413"/>
<path d="M88 393H218L207 415H66L88 393Z" fill="#74950A"/>
<path d="M675.5 136L695 142L749.5 200L774 226L752.5 217.5L675.5 136Z" fill="#2B3509"/>
<path d="M258 222L259.5 217L263.5 229L295.669 248.096L324.999 266L319.5 272L261 231.5L258 222Z" fill="#2B3509"/>
<path d="M608 146.5L615.689 148.399L663.25 289.028L651.5 274L608 146.5Z" fill="#2B3509"/>
<path d="M652 272.5L661.886 286.548L621.247 376.618L601 417.5L596.5 416L652 272.5Z" fill="#2B3509"/>
<path d="M503 305.5L505.5 312.5L486 354L476.5 372.5V366.5L503 305.5Z" fill="#2B3509"/>
<path d="M639 51L643.5 39L685.5 97.5L702.5 120L688.5 116.5L639 51Z" fill="#2B3509"/>
<path d="M607.5 84L608 81.5L620.496 95.1728L625.402 100.591L625 102L607.5 84Z" fill="#2B3509"/>
<path d="M591 52L594.413 51L612.5 65.5L619.5 71V74L591 52Z" fill="#2B3509"/>
<path d="M535 49.5L534.685 43.6647L569.597 51.3708L583.518 54.0813L585 56.5L535 49.5Z" fill="#2B3509"/>
<path d="M585 56.5L583 54L591 52L593.5 53.4999L585 56.5Z" fill="#2B3509"/>
<path d="M616 148.5L608 146.5L652 136.5L657 138.5L616 148.5Z" fill="#2B3509"/>
<path d="M616 148.5L608 146.5L652 136.5L657 138.5L616 148.5Z" fill="#2B3509"/>
<path d="M625 102L623.999 99.9818L632.5 101L639 101.5L653 104L652.5 105L625 102Z" fill="#2B3509"/>
<path d="M504.93 311.962L503 305.5L523.5 307.5L539.931 307.973L574.331 311.095L572.884 313.565L504.93 311.962Z" fill="#2B3509"/>
<path d="M512.5 3.99999L515.447 0.408475L531.5 35L534.799 44L535 49.5L512.5 3.99999Z" fill="#2B3509"/>
<path d="M281 129L367.5 142L374.5 148.5L379 191L364.5 201.5L342 196.5H361L371 189L367.5 153.5L365.5 150L332 144.5L295 140L299.5 169L301.5 183.5L316.5 192L326.5 195L299.5 196.5C295.37 196.396 292.732 195.88 287 193.5C284.23 192.682 282.847 191.548 281 187C278.099 169.218 278.639 181.576 273 135.5C275.391 130.101 277.115 128.57 281 129Z" fill="#74950A"/>
<path d="M290.5 306.5L330.5 257.5L323.223 266.5L297 250L264 230L259 216.5L319 230L338.5 250L412.5 280L433.5 327.5L454.5 372H421.5L290.5 306.5Z" fill="#74950A"/>
<path d="M240 402.5L254.5 380.5L270.5 366L284.5 360.5L306 357L284.5 370.5L264 391.5L254.5 409.5L251 437L259 468L284.5 491.5L313 498L333 489.5L347.5 476H369L357 498L336.5 511L309.5 517L270.5 511L251 491.5L236.5 476L231 453.5V433.5L240 402.5Z" fill="#74950A"/>
<path d="M439.25 389L600.908 414.961L625.273 438.974L634.25 456.753L631.258 463L466.181 424.078L439.25 389Z" fill="#74950A"/>
<path d="M367.5 398L332.5 349.5L411.5 392.5L450.5 440.5L503 465L408 451.5L367.5 398Z" fill="#571413"/>
<path d="M306 428L367 432L381 451L289.5 442.5L306 428Z" fill="#74950A"/>
</svg>
